<svg xmlns="http://www.w3.org/2000/svg" xmlns:xlink="http://www.w3.org/1999/xlink" width="200" zoomAndPan="magnify" viewBox="0 0 150 149.999998" height="200" preserveAspectRatio="xMidYMid meet" version="1.0"><defs><clipPath id="5eb171ca0d"><path d="M 26.089844 33.292969 L 109 33.292969 L 109 116 L 26.089844 116 Z M 26.089844 33.292969 " clip-rule="nonzero"/></clipPath><clipPath id="d204ff1adc"><path d="M 112 105 L 123.589844 105 L 123.589844 116.542969 L 112 116.542969 Z M 112 105 " clip-rule="nonzero"/></clipPath></defs><rect x="-15" width="180" fill="#ffffff" y="-15" height="179.999997" fill-opacity="1"/><rect x="-15" width="180" fill="#ffffff" y="-15" height="179.999997" fill-opacity="1"/><path fill="#0a66c2" d="M 118.773438 111.191406 C 119.617188 111.199219 120.308594 110.523438 120.316406 109.679688 C 120.316406 109.644531 120.316406 109.609375 120.316406 109.574219 C 120.316406 108.425781 119.625 107.882812 118.210938 107.882812 L 115.921875 107.882812 L 115.921875 113.882812 L 116.785156 113.882812 L 116.785156 111.265625 L 117.84375 111.265625 L 117.867188 111.296875 L 119.507812 113.882812 L 120.429688 113.882812 L 118.660156 111.207031 L 118.777344 111.191406 Z M 117.78125 110.589844 L 116.78125 110.589844 L 116.78125 108.5625 L 118.046875 108.5625 C 118.699219 108.5625 119.445312 108.671875 119.445312 109.527344 C 119.445312 110.511719 118.691406 110.59375 117.777344 110.59375 " fill-opacity="1" fill-rule="nonzero"/><g clip-path="url(#5eb171ca0d)"><path fill="#0a66c2" d="M 96.308594 103.671875 L 84.101562 103.671875 L 84.101562 84.523438 C 84.101562 79.960938 84.019531 74.082031 77.75 74.082031 C 71.480469 74.082031 70.417969 79.058594 70.417969 84.195312 L 70.417969 103.671875 L 58.207031 103.671875 L 58.207031 64.296875 L 69.929688 64.296875 L 69.929688 69.675781 L 70.09375 69.675781 C 72.484375 65.582031 76.929688 63.140625 81.660156 63.316406 C 94.035156 63.316406 96.316406 71.464844 96.316406 82.070312 L 96.316406 103.671875 Z M 44.421875 58.914062 C 40.511719 58.914062 37.335938 55.738281 37.335938 51.820312 C 37.335938 47.902344 40.507812 44.722656 44.417969 44.722656 C 48.332031 44.722656 51.507812 47.898438 51.507812 51.816406 C 51.507812 55.734375 48.335938 58.914062 44.421875 58.914062 M 50.53125 103.671875 L 38.308594 103.671875 L 38.308594 64.296875 L 50.53125 64.296875 Z M 102.398438 33.367188 L 32.171875 33.367188 C 28.851562 33.332031 26.128906 35.992188 26.089844 39.316406 L 26.089844 109.925781 C 26.128906 113.25 28.847656 115.914062 32.171875 115.878906 L 102.398438 115.878906 C 105.726562 115.921875 108.457031 113.253906 108.503906 109.925781 L 108.503906 39.3125 C 108.457031 35.980469 105.726562 33.320312 102.398438 33.363281 " fill-opacity="1" fill-rule="nonzero"/></g><g clip-path="url(#d204ff1adc)"><path fill="#0a66c2" d="M 117.878906 105.207031 C 114.777344 105.238281 112.285156 107.78125 112.316406 110.890625 C 112.347656 114 114.882812 116.492188 117.988281 116.460938 C 121.09375 116.429688 123.585938 113.890625 123.554688 110.78125 C 123.523438 107.714844 121.050781 105.234375 117.988281 105.207031 L 117.878906 105.207031 M 117.878906 115.820312 C 115.160156 115.867188 112.917969 113.691406 112.871094 110.96875 C 112.824219 108.242188 114.996094 106 117.71875 105.953125 C 120.4375 105.90625 122.679688 108.082031 122.726562 110.804688 L 122.726562 110.886719 C 122.785156 113.550781 120.671875 115.757812 118.007812 115.816406 L 117.878906 115.816406 " fill-opacity="1" fill-rule="nonzero"/></g></svg>