<svg xmlns="http://www.w3.org/2000/svg" xmlns:xlink="http://www.w3.org/1999/xlink" width="200" zoomAndPan="magnify" viewBox="0 0 150 149.999998" height="200" preserveAspectRatio="xMidYMid meet" version="1.0"><defs><clipPath id="2e71e6f967"><path d="M 57.148438 47 L 93 47 L 93 105 L 57.148438 105 Z M 57.148438 47 " clip-rule="nonzero"/></clipPath></defs><rect x="-15" width="180" fill="#ffffff" y="-15" height="179.999997" fill-opacity="1"/><rect x="-15" width="180" fill="#ffffff" y="-15" height="179.999997" fill-opacity="1"/><g clip-path="url(#2e71e6f967)"><path fill="#4f3431" d="M 59.523438 78.300781 C 58.96875 78.703125 58.0625 79.066406 57.394531 78.761719 C 57.183594 78.664062 57.105469 78.480469 57.175781 78.25 C 57.257812 77.996094 58.070312 77.796875 58.347656 77.632812 C 58.625 77.46875 58.832031 77.28125 58.964844 76.996094 C 59.640625 75.546875 58.238281 74.597656 58.167969 73.160156 C 58.066406 71.082031 59.234375 70.105469 60.140625 68.507812 C 62.417969 64.5 62.015625 60.417969 63.277344 56.1875 C 64.152344 53.261719 66.902344 47.371094 70.414062 47.09375 C 71.0625 47.042969 71.601562 47.253906 72.152344 47.246094 C 72.492188 47.242188 72.914062 47.078125 73.265625 47.046875 C 75.621094 46.859375 79.714844 48.238281 80.28125 50.855469 C 80.410156 51.457031 80.359375 52.074219 80.445312 52.671875 C 80.601562 53.773438 81.492188 54.765625 81.402344 55.863281 C 81.386719 56.074219 81.285156 56.296875 81.265625 56.496094 C 81.191406 57.210938 82.046875 58.375 82.128906 59.246094 C 82.222656 60.277344 81.722656 60.808594 81.597656 61.757812 C 81.445312 62.921875 81.6875 63.980469 81.597656 65.089844 C 81.453125 66.964844 79.285156 66.878906 77.882812 66.808594 C 77.765625 67.453125 77.519531 68.121094 77.855469 68.734375 C 77.890625 68.792969 78.121094 69.101562 78.160156 69.121094 C 78.246094 69.164062 78.777344 69.214844 78.914062 69.222656 C 81.527344 69.371094 86.246094 67.871094 88.472656 69.082031 C 88.71875 69.214844 89.179688 69.5625 89.398438 69.75 C 89.855469 70.144531 90.742188 71.261719 90.898438 71.828125 C 90.925781 71.933594 90.988281 72.425781 91.023438 72.449219 C 91.09375 72.492188 91.269531 72.410156 91.429688 72.550781 C 91.925781 72.980469 91.679688 74.820312 91.742188 75.472656 C 91.773438 75.804688 91.886719 75.703125 91.972656 75.871094 C 92.171875 76.25 92.085938 77.03125 92.128906 77.453125 C 92.152344 77.695312 92.289062 77.917969 92.316406 78.136719 C 92.429688 78.992188 92.027344 79.742188 91.902344 80.558594 C 91.671875 82.039062 91.804688 82.855469 90.96875 84.21875 C 90.183594 85.503906 89.105469 86.992188 88.207031 88.21875 C 87.328125 89.417969 86.367188 90.5625 85.414062 91.703125 C 86.085938 92.152344 86.714844 92.671875 87.378906 93.121094 C 87.917969 93.484375 88.308594 93.796875 89.007812 93.707031 C 89.152344 93.6875 89.695312 93.46875 89.789062 93.375 C 89.851562 93.308594 90.144531 92.300781 90.238281 92.082031 C 91.078125 90.109375 92.390625 88.1875 92.175781 85.910156 L 91.90625 82.839844 C 91.976562 82.660156 92.128906 82.578125 92.300781 82.691406 C 92.484375 82.8125 92.691406 83.878906 92.734375 84.144531 C 92.945312 85.398438 92.8125 86.589844 92.710938 87.84375 C 92.53125 90.054688 92.371094 92.226562 90.484375 93.683594 C 90.40625 94.363281 90.414062 95.035156 90.390625 95.714844 C 90.328125 97.367188 90.328125 99.03125 90.339844 100.691406 C 90.34375 101.515625 90.453125 102.371094 90.390625 103.203125 C 90.382812 103.347656 90.199219 104.351562 90.148438 104.382812 C 90.125 104.398438 90.035156 104.386719 90 104.363281 C 89.832031 104.246094 89.546875 102.75 89.519531 102.476562 C 89.359375 100.804688 89.460938 98.804688 89.523438 97.117188 C 89.558594 96.125 89.582031 95.128906 89.714844 94.144531 C 87.804688 95.03125 86.546875 92.929688 85.15625 92.023438 C 84.332031 92.9375 83.425781 93.777344 82.539062 94.625 C 81.550781 95.574219 80.6875 96.507812 79.515625 97.257812 C 78.898438 97.652344 77.390625 98.609375 76.738281 98.726562 C 72.960938 99.40625 69.832031 94.824219 68.121094 92.09375 C 67.414062 90.960938 66.054688 88.640625 65.765625 87.394531 C 65.726562 87.21875 65.765625 87.171875 65.898438 87.308594 C 66.132812 87.550781 66.515625 88.25 66.710938 88.574219 C 68.519531 91.578125 71.1875 96.898438 74.703125 98.023438 C 75.722656 98.347656 76.699219 98.46875 77.652344 97.902344 C 81.503906 95.621094 85.640625 91.070312 88.253906 87.445312 C 89.023438 86.382812 90.085938 84.980469 90.71875 83.871094 C 91.191406 83.039062 91.359375 82.550781 91.007812 81.621094 C 90.914062 81.375 90.292969 80.289062 90.304688 80.167969 C 90.316406 79.992188 90.523438 79.929688 90.660156 80.035156 L 91.355469 81.246094 C 91.296875 80.386719 91.800781 79.507812 91.882812 78.707031 C 91.933594 78.167969 91.746094 77.996094 91.699219 77.546875 C 91.664062 77.203125 91.726562 76.453125 91.570312 76.179688 C 91.363281 75.820312 91.292969 75.832031 91.261719 75.328125 C 91.207031 74.5625 91.4375 73.757812 91.210938 72.988281 C 91.0625 73.082031 91.171875 73.3125 90.996094 73.425781 C 90.691406 73.621094 90.632812 73.28125 90.589844 73.054688 C 90.484375 72.492188 90.527344 71.898438 90.195312 71.394531 C 90.078125 71.378906 90.121094 71.394531 90.097656 71.460938 C 89.792969 72.277344 89.792969 73.546875 89.398438 74.292969 C 89.003906 75.039062 88.535156 74.640625 88.257812 74.082031 C 87.875 73.316406 87.75 72.582031 87.15625 71.898438 C 87.105469 71.84375 86.71875 71.4375 86.671875 71.492188 C 86.65625 72.480469 86.957031 73.425781 87.054688 74.414062 C 87.171875 75.566406 87.128906 76.660156 87.378906 77.808594 C 87.421875 78.003906 87.59375 78.730469 87.679688 78.851562 C 87.75 78.953125 88.050781 78.746094 88.097656 79.074219 C 88.136719 79.320312 87.753906 79.734375 87.589844 79.921875 C 86.738281 80.890625 85.710938 81.730469 84.785156 82.625 C 83.238281 84.121094 81.785156 85.746094 79.921875 86.84375 C 77.664062 88.175781 76.042969 84.90625 74.972656 83.457031 C 74.027344 82.175781 73.085938 80.875 72.011719 79.703125 C 71.5625 79.214844 71.039062 78.796875 70.632812 78.277344 C 70.617188 78.15625 70.714844 78.199219 70.777344 78.230469 C 70.976562 78.335938 71.449219 78.777344 71.648438 78.953125 C 72.875 80.03125 74.050781 81.402344 75.074219 82.675781 C 75.820312 83.597656 76.523438 84.714844 77.296875 85.574219 C 77.984375 86.335938 78.726562 86.753906 79.761719 86.34375 C 79.035156 85.574219 78.492188 84.65625 77.851562 83.8125 C 76.867188 82.523438 75.835938 81.257812 74.765625 80.039062 C 74.46875 79.707031 73.90625 79.234375 73.675781 78.90625 C 73.609375 78.808594 73.550781 78.578125 73.519531 78.554688 C 73.476562 78.519531 73.035156 78.433594 72.902344 78.375 C 72.136719 78.027344 71.246094 76.972656 70.558594 76.421875 C 69.117188 75.265625 67.421875 74.957031 65.71875 74.402344 C 65.132812 74.214844 64.15625 74.003906 64.449219 73.183594 L 63.175781 73.277344 C 62.714844 73.234375 62.574219 73.042969 62.484375 72.613281 C 62.355469 72.027344 62.402344 71.757812 62.828125 71.34375 C 64.167969 70.0625 66.023438 69.652344 67.605469 68.828125 C 68.675781 68.273438 69.128906 66.453125 69.039062 65.332031 C 68.890625 63.542969 67.953125 62.429688 67.257812 60.929688 C 66.675781 59.679688 66.617188 58.199219 68.253906 57.835938 C 69.621094 57.53125 70.5 58.691406 71.519531 57.285156 C 72.25 56.277344 72.59375 54.832031 73.214844 53.714844 C 73.644531 52.941406 75.117188 50.921875 76.023438 50.820312 C 76.230469 50.796875 76.570312 50.90625 76.402344 51.15625 C 76.292969 51.324219 76.269531 51.042969 76.171875 51.066406 C 75.5625 51.207031 74.542969 52.671875 74.214844 53.21875 C 73.367188 54.636719 72.765625 57.34375 71.597656 58.328125 C 70.492188 59.261719 69.507812 58.328125 68.347656 58.507812 C 68.0625 58.554688 67.621094 58.859375 67.527344 59.136719 C 67.21875 60.082031 68.253906 61.371094 68.675781 62.167969 C 69.910156 64.496094 70.445312 67.265625 68.144531 69.125 L 67.347656 69.460938 C 67.683594 69.371094 67.972656 69.453125 68.285156 69.464844 C 70.355469 69.539062 70.867188 69.574219 72.488281 70.863281 C 73.945312 72.023438 75.34375 73.390625 76.820312 74.503906 C 77.488281 75.011719 78.105469 75.109375 78.722656 75.644531 L 83.457031 79.703125 L 82.066406 75.875 C 81.335938 74.167969 80.722656 72.351562 79.816406 70.734375 C 79.746094 70.609375 79.335938 70.007812 79.332031 69.960938 C 79.300781 69.613281 79.785156 70.128906 79.855469 70.210938 C 80.886719 71.410156 81.828125 73.882812 82.40625 75.390625 C 83.066406 77.117188 83.511719 78.929688 84.375 80.570312 C 84.4375 80.707031 84.390625 80.894531 84.226562 80.910156 C 83.988281 80.933594 83.855469 80.632812 83.722656 80.5 C 82.253906 79.015625 80.316406 77.433594 78.671875 76.128906 C 78.484375 75.980469 77.9375 75.492188 77.71875 75.558594 C 77.511719 75.617188 77.339844 76.234375 77.027344 75.988281 C 76.78125 75.796875 77.269531 75.414062 77.226562 75.355469 C 76.832031 75.128906 76.472656 74.859375 76.113281 74.582031 C 74.597656 73.390625 73.140625 71.980469 71.589844 70.84375 C 70.863281 70.308594 70.496094 70.136719 69.585938 70 C 68.367188 69.816406 67.15625 69.847656 65.945312 69.992188 C 65.933594 70.078125 66.054688 70.039062 66.113281 70.042969 C 66.875 70.070312 67.878906 70.015625 68.617188 70.195312 C 68.914062 70.269531 68.921875 70.59375 68.480469 70.574219 C 66.699219 70.5 65.324219 70.226562 63.757812 71.355469 C 63.703125 71.390625 63.257812 71.707031 63.335938 71.78125 C 64.011719 71.652344 64.679688 71.476562 65.355469 71.359375 C 65.980469 71.253906 66.746094 71.121094 67.371094 71.101562 C 67.738281 71.09375 67.816406 71.445312 67.503906 71.527344 C 67.085938 71.636719 66.40625 71.621094 65.929688 71.691406 C 65.273438 71.789062 63.578125 72.0625 63.078125 72.414062 C 62.914062 72.527344 62.78125 72.761719 63.066406 72.796875 C 64.035156 72.910156 65.234375 72.738281 66.210938 72.695312 L 68.425781 72.898438 C 68.820312 73.351562 67.839844 73.136719 67.613281 73.128906 C 66.992188 73.117188 66.039062 73.0625 65.449219 73.144531 C 65.285156 73.167969 64.808594 73.289062 64.828125 73.492188 C 64.847656 73.652344 65.425781 73.851562 65.578125 73.90625 C 67.488281 74.589844 69.203125 74.839844 70.84375 76.175781 C 71.453125 76.671875 72.6875 78.054688 73.410156 78.152344 C 74.074219 78.238281 74.6875 77.710938 75.289062 77.527344 C 75.554688 77.441406 75.714844 77.5 75.535156 77.769531 L 74.109375 78.617188 C 76.4375 80.886719 78.308594 83.566406 80.167969 86.222656 C 80.320312 86.238281 81.480469 85.195312 81.667969 85.015625 C 82.800781 83.953125 83.9375 82.742188 85.050781 81.636719 C 85.855469 80.832031 86.675781 80.039062 87.433594 79.1875 C 87.054688 78.546875 86.828125 77.847656 86.722656 77.109375 C 86.582031 76.136719 86.652344 75.148438 86.570312 74.171875 C 86.511719 73.511719 86.324219 72.824219 86.28125 72.191406 C 86.132812 70.054688 87.523438 71.40625 88.042969 72.359375 C 88.347656 72.917969 88.488281 73.613281 88.78125 74.132812 C 88.808594 74.179688 88.839844 74.261719 88.910156 74.242188 C 89.15625 74.183594 89.585938 71.515625 89.734375 71.128906 C 89.726562 70.78125 88.894531 69.921875 88.59375 69.730469 C 86.726562 68.539062 82.585938 69.550781 80.414062 69.65625 C 79.761719 69.6875 78.277344 69.753906 77.761719 69.40625 C 76.847656 68.789062 77.214844 67.636719 77.441406 66.757812 C 76.929688 66.613281 76.308594 66.519531 75.820312 66.324219 C 75.703125 66.277344 75.300781 66.101562 75.527344 65.933594 C 75.691406 65.8125 76.28125 66.070312 76.503906 66.125 C 77.6875 66.417969 78.925781 66.574219 80.132812 66.238281 C 81.570312 65.839844 81.105469 64.394531 81.0625 63.304688 C 81.03125 62.609375 81.058594 61.75 81.253906 61.082031 C 81.363281 60.71875 81.582031 60.355469 81.667969 59.996094 C 81.925781 58.941406 81.320312 58.199219 80.992188 57.289062 C 80.691406 56.46875 81.058594 56.023438 80.785156 55.175781 C 80.476562 54.21875 79.960938 53.109375 79.492188 52.214844 C 79.40625 52.050781 78.800781 51.097656 78.890625 51.011719 C 79.359375 51.007812 79.53125 51.625 79.855469 51.878906 C 79.902344 48.992188 75.847656 47.40625 73.457031 47.582031 C 73.023438 47.613281 72.507812 47.808594 72.097656 47.816406 C 71.136719 47.832031 70.746094 47.464844 69.664062 47.894531 C 66.527344 49.136719 64.195312 54.851562 63.464844 57.925781 C 62.582031 61.636719 62.570312 65.632812 60.636719 69.011719 C 59.90625 70.289062 58.984375 71.066406 58.847656 72.679688 C 58.75 73.808594 59.125 74.070312 59.472656 74.992188 C 59.816406 75.914062 59.757812 76.816406 59.179688 77.671875 C 59.21875 77.703125 59.757812 77.257812 60.027344 77.765625 C 60.238281 78.164062 60.15625 79.476562 60.082031 79.953125 C 59.9375 80.886719 59.40625 81.773438 59.375 82.722656 C 59.351562 83.40625 59.617188 84.101562 59.855469 84.726562 C 60.070312 84.535156 59.976562 84.109375 60.363281 84.09375 C 60.761719 84.082031 60.726562 84.707031 60.898438 85.011719 C 61.070312 85.320312 61.390625 85.476562 61.621094 85.742188 C 61.675781 85.582031 61.675781 85.402344 61.761719 85.253906 C 61.828125 85.136719 61.929688 85.109375 61.972656 85.03125 C 62.136719 84.703125 62.296875 83.863281 62.265625 83.5 C 62.144531 82.148438 61.605469 80.511719 61.367188 79.132812 C 61.25 78.457031 61.097656 77.546875 61.0625 76.875 C 61.046875 76.515625 61.085938 76 61.542969 76.347656 C 62.390625 81.675781 63.925781 86.855469 64.914062 92.15625 C 65.527344 95.464844 65.917969 98.761719 65.5 102.132812 C 65.382812 103.101562 65.195312 104.089844 64.832031 104.992188 L 64.6875 104.988281 C 64.59375 103.867188 64.804688 102.765625 64.878906 101.65625 C 65.046875 99.183594 64.925781 96.824219 64.527344 94.378906 C 64.003906 91.183594 63.160156 88.046875 62.5625 84.871094 C 62.488281 84.859375 62.503906 84.960938 62.488281 85.015625 C 62.441406 85.199219 62.445312 85.449219 62.394531 85.597656 C 62.351562 85.726562 62.214844 85.734375 62.183594 85.820312 C 62.132812 85.960938 62.171875 86.167969 62.070312 86.335938 C 61.960938 86.527344 61.714844 86.496094 61.550781 86.390625 C 61.394531 86.292969 60.890625 85.839844 60.746094 85.695312 C 60.644531 85.589844 60.53125 85.441406 60.484375 85.304688 L 60.390625 85.816406 C 60.078125 86.253906 59.496094 85.34375 59.351562 85.109375 C 58.707031 84.03125 58.566406 82.777344 58.902344 81.574219 C 59.070312 80.976562 59.519531 80.148438 59.519531 79.53125 L 59.519531 78.300781 Z M 90.824219 92.453125 C 91.390625 91.84375 91.707031 91 91.835938 90.183594 Z M 90.824219 92.453125 " fill-opacity="1" fill-rule="nonzero"/></g><path fill="#4f3431" d="M 87.105469 66.949219 C 87.089844 66.851562 87.113281 66.761719 87.136719 66.667969 C 87.394531 65.691406 87.914062 64.566406 88.226562 63.558594 C 89.589844 59.167969 91.429688 52.375 90.183594 47.90625 C 89.992188 47.226562 89.144531 45.109375 88.191406 46.128906 C 87.234375 47.148438 87.578125 49.222656 87.492188 50.457031 C 87.449219 51.097656 87.191406 51.679688 86.5 51.152344 C 86.175781 50.339844 86.0625 49.574219 85.507812 48.859375 C 84.890625 48.066406 83.914062 47.503906 83.480469 48.808594 C 82.976562 50.3125 83.855469 52.550781 84.488281 53.941406 C 85.175781 55.464844 86.125 56.902344 86.523438 58.546875 C 86.449219 58.558594 86.410156 58.539062 86.351562 58.5 C 86.148438 58.367188 85.351562 57.160156 85.171875 56.878906 C 83.941406 54.957031 82.367188 51.910156 82.515625 49.585938 C 82.652344 47.425781 84.210938 46.390625 85.921875 48.011719 L 86.476562 48.691406 C 86.539062 47.335938 87.054688 44.847656 88.867188 45.019531 C 90.242188 45.152344 90.875 47.164062 91.097656 48.296875 C 91.957031 52.652344 90.519531 57.894531 89.195312 62.0625 C 88.738281 63.488281 88.167969 65.304688 87.46875 66.613281 C 87.394531 66.753906 87.285156 66.980469 87.105469 66.949219 Z M 87.105469 66.949219 " fill-opacity="1" fill-rule="nonzero"/></svg>