<svg xmlns="http://www.w3.org/2000/svg" xmlns:xlink="http://www.w3.org/1999/xlink" width="200" zoomAndPan="magnify" viewBox="0 0 150 149.999998" height="200" preserveAspectRatio="xMidYMid meet" version="1.0"><defs><clipPath id="77fe79780b"><path d="M 45 48.164062 L 105 48.164062 L 105 102 L 45 102 Z M 45 48.164062 " clip-rule="nonzero"/></clipPath></defs><rect x="-15" width="180" fill="#ffffff" y="-15" height="179.999997" fill-opacity="1"/><rect x="-15" width="180" fill="#ffffff" y="-15" height="179.999997" fill-opacity="1"/><g clip-path="url(#77fe79780b)"><path fill="#4f3431" d="M 78.472656 59.234375 C 78.476562 59.25 77.476562 59.363281 75.65625 60.035156 C 73.9375 60.667969 71.085938 62.027344 68.59375 64.800781 C 66.492188 67.140625 64.488281 70.734375 64.152344 75.195312 C 64.019531 76.941406 64.144531 78.84375 64.734375 80.695312 C 65.265625 82.375 66.203125 84.050781 67.597656 85.367188 C 68.703125 86.40625 70.097656 87.222656 71.660156 87.613281 C 73.132812 87.976562 74.757812 87.960938 76.273438 87.460938 C 77.542969 87.039062 78.734375 86.28125 79.699219 85.269531 C 80.628906 84.300781 81.355469 83.101562 81.820312 81.78125 C 82.703125 79.28125 82.613281 76.390625 81.699219 73.675781 C 81.246094 72.339844 80.59375 71.023438 79.617188 69.96875 C 78.671875 68.945312 77.394531 68.15625 75.992188 67.972656 C 74.824219 67.816406 73.59375 68.082031 72.519531 68.660156 C 71.46875 69.226562 70.566406 70.082031 69.851562 71.085938 C 68.453125 73.039062 67.832031 75.449219 67.304688 77.953125 C 67 79.445312 66.710938 81.003906 67.03125 82.46875 C 67.191406 83.191406 67.492188 83.890625 67.964844 84.449219 C 68.429688 84.996094 69.066406 85.421875 69.769531 85.558594 C 70.46875 85.699219 71.238281 85.554688 71.859375 85.175781 C 72.476562 84.800781 72.960938 84.191406 73.203125 83.5 C 73.449219 82.8125 73.460938 82.039062 73.257812 81.328125 C 73.058594 80.625 72.644531 79.972656 72.09375 79.472656 C 71.480469 78.921875 70.691406 78.542969 69.875 78.488281 C 69.074219 78.433594 68.226562 78.699219 67.652344 79.257812 C 67.046875 79.832031 66.742188 80.734375 66.851562 81.578125 C 66.953125 82.414062 67.464844 83.207031 68.179688 83.679688 C 68.886719 84.152344 69.804688 84.316406 70.652344 84.144531 C 71.492188 83.976562 72.273438 83.472656 72.808594 82.785156 C 73.542969 81.847656 73.804688 80.566406 73.691406 79.332031 C 73.578125 78.109375 73.105469 76.925781 72.496094 75.804688 C 71.738281 74.414062 70.757812 73.097656 69.4375 72.246094 C 68.789062 71.824219 68.058594 71.511719 67.296875 71.382812 C 66.546875 71.253906 65.753906 71.296875 65.039062 71.546875 C 64.203125 71.839844 63.460938 72.421875 62.941406 73.15625 C 62.421875 73.886719 62.121094 74.777344 62.050781 75.683594 C 61.910156 77.476562 62.707031 79.308594 63.980469 80.660156 C 65.492188 82.273438 67.644531 83.230469 69.894531 83.691406 C 72.105469 84.140625 74.398438 84.117188 76.742188 84.058594 C 77.863281 84.03125 78.988281 83.996094 80.074219 83.808594 C 81.15625 83.625 82.21875 83.300781 83.132812 82.726562 C 84.03125 82.160156 84.800781 81.34375 85.175781 80.363281 C 85.363281 79.878906 85.457031 79.355469 85.433594 78.839844 C 85.40625 78.328125 85.265625 77.820312 85.011719 77.378906 C 84.753906 76.949219 84.390625 76.574219 83.953125 76.417969 C 83.734375 76.335938 83.5 76.300781 83.277344 76.328125 C 83.058594 76.355469 82.84375 76.4375 82.679688 76.570312 C 82.398438 76.777344 82.242188 77.164062 82.175781 77.5625 C 82.113281 77.964844 82.160156 78.402344 82.210938 78.867188 C 82.261719 79.328125 82.316406 79.824219 82.253906 80.339844 C 82.195312 80.863281 81.96875 81.402344 81.535156 81.785156 C 81.085938 82.164062 80.488281 82.300781 79.929688 82.195312 C 79.378906 82.089844 78.890625 81.785156 78.542969 81.371094 C 78.199219 80.960938 77.980469 80.46875 77.871094 79.964844 C 77.761719 79.460938 77.746094 78.957031 77.777344 78.46875 C 77.84375 77.492188 78.074219 76.578125 78.097656 75.6875 C 78.105469 75.246094 78.074219 74.8125 77.949219 74.410156 C 77.828125 74.011719 77.628906 73.640625 77.339844 73.371094 C 77.050781 73.09375 76.664062 72.910156 76.261719 72.84375 C 75.859375 72.773438 75.429688 72.824219 75.035156 72.964844 C 74.25 73.242188 73.613281 73.925781 73.25 74.71875 C 72.886719 75.507812 72.789062 76.425781 72.839844 77.339844 C 72.890625 78.25 73.097656 79.160156 73.316406 80.085938 C 73.523438 80.941406 73.730469 81.792969 74.054688 82.578125 C 74.382812 83.359375 74.816406 84.097656 75.421875 84.652344 C 75.984375 85.171875 76.695312 85.539062 77.453125 85.722656 C 78.203125 85.90625 79.007812 85.90625 79.777344 85.742188 C 81.304688 85.425781 82.679688 84.445312 83.667969 83.179688 C 84.648438 81.925781 85.257812 80.382812 85.609375 78.78125 C 85.953125 77.191406 86.042969 75.539062 86.078125 73.867188 C 86.101562 72.394531 86.089844 70.917969 85.648438 69.578125 C 85.425781 68.914062 85.109375 68.28125 84.667969 67.753906 C 84.234375 67.230469 83.675781 66.796875 83.054688 66.5625 C 82.359375 66.292969 81.570312 66.261719 80.8125 66.410156 C 80.058594 66.554688 79.335938 66.886719 78.664062 67.316406 C 77.328125 68.167969 76.246094 69.410156 75.027344 70.589844 C 73.941406 71.648438 72.773438 72.613281 72.058594 73.835938 C 71.703125 74.441406 71.445312 75.109375 71.390625 75.785156 C 71.335938 76.457031 71.464844 77.152344 71.820312 77.699219 C 72.21875 78.328125 72.925781 78.773438 73.679688 78.925781 C 74.4375 79.078125 75.253906 78.941406 75.96875 78.597656 C 76.683594 78.25 77.296875 77.691406 77.773438 77.03125 C 78.25 76.371094 78.589844 75.601562 78.828125 74.800781 C 79.355469 73.007812 79.347656 71.0625 78.988281 69.1875 C 78.632812 67.324219 77.921875 65.523438 77.074219 63.777344 C 76.292969 62.183594 75.390625 60.621094 74.066406 59.535156 C 73.410156 58.996094 72.65625 58.570312 71.851562 58.351562 C 71.050781 58.136719 70.1875 58.117188 69.410156 58.363281 C 68.785156 58.554688 68.207031 58.917969 67.710938 59.375 C 67.21875 59.835938 66.8125 60.394531 66.480469 61.003906 C 65.8125 62.214844 65.472656 63.609375 65.121094 65.03125 C 64.746094 66.566406 64.367188 68.097656 64.390625 69.621094 C 64.398438 70.375 64.503906 71.128906 64.746094 71.832031 C 64.984375 72.527344 65.355469 73.183594 65.859375 73.699219 C 66.394531 74.253906 67.089844 74.660156 67.839844 74.914062 C 68.585938 75.167969 69.390625 75.269531 70.203125 75.261719 C 71.820312 75.253906 73.433594 74.789062 75.074219 74.332031 C 77.957031 73.511719 80.894531 72.707031 83.390625 71.140625 C 84.628906 70.363281 85.761719 69.40625 86.636719 68.25 C 87.503906 67.101562 88.125 65.75 88.316406 64.335938 C 88.5 63.015625 88.308594 61.640625 87.785156 60.402344 C 87.261719 59.175781 86.40625 58.082031 85.335938 57.265625 C 83.84375 56.117188 81.925781 55.53125 80.007812 55.488281 C 78.101562 55.445312 76.179688 55.945312 74.429688 56.792969 C 70.949219 58.46875 68.246094 61.476562 65.796875 64.640625 C 63.570312 67.539062 61.488281 70.644531 60.53125 74.128906 C 59.984375 76.140625 59.804688 78.300781 60.421875 80.242188 C 60.722656 81.210938 61.214844 82.125 61.890625 82.867188 C 62.5625 83.601562 63.421875 84.179688 64.363281 84.46875 C 65.5 84.824219 66.769531 84.757812 67.949219 84.410156 C 69.128906 84.0625 70.226562 83.425781 71.246094 82.667969 C 72.679688 81.597656 73.945312 80.28125 74.855469 78.75 C 75.757812 77.226562 76.316406 75.480469 76.34375 73.71875 C 76.375 71.972656 75.882812 70.191406 74.863281 68.785156 C 73.851562 67.382812 72.304688 66.339844 70.617188 66.039062 C 69.871094 65.90625 69.101562 65.90625 68.414062 66.132812 C 67.558594 66.402344 66.804688 67.023438 66.3125 67.800781 C 65.820312 68.578125 65.585938 69.523438 65.589844 70.464844 C 65.59375 71.40625 65.847656 72.351562 66.265625 73.21875 C 66.683594 74.085938 67.269531 74.878906 67.949219 75.589844 C 70.347656 78.109375 73.828125 79.464844 77.359375 79.980469 C 79.546875 80.289062 81.789062 80.304688 83.902344 79.761719 C 86 79.21875 87.988281 78.121094 89.351562 76.472656 C 91.023438 74.488281 91.710938 71.769531 91.757812 69.089844 C 91.796875 66.421875 91.21875 63.75 90.621094 61.058594 C 90.136719 58.917969 89.652344 56.757812 88.449219 55.054688 C 87.855469 54.207031 87.101562 53.46875 86.203125 53.003906 C 85.316406 52.542969 84.277344 52.335938 83.324219 52.527344 C 82.699219 52.644531 82.09375 52.929688 81.554688 53.3125 C 81.015625 53.695312 80.539062 54.179688 80.113281 54.714844 C 79.253906 55.789062 78.617188 57.066406 77.847656 58.320312 C 76.914062 59.84375 75.84375 61.238281 75.253906 62.792969 C 74.957031 63.566406 74.773438 64.375 74.792969 65.175781 C 74.808594 65.96875 75.019531 66.761719 75.457031 67.386719 C 75.804688 67.894531 76.304688 68.308594 76.867188 68.601562 C 77.429688 68.890625 78.070312 69.050781 78.71875 69.105469 C 80.015625 69.222656 81.355469 68.871094 82.636719 68.371094 C 85.539062 67.207031 88.183594 65.140625 89.476562 62.339844 C 90.125 60.949219 90.4375 59.390625 90.304688 57.875 C 90.175781 56.359375 89.597656 54.875 88.621094 53.726562 C 87.445312 52.347656 85.652344 51.453125 83.851562 51.464844 C 82.609375 51.464844 81.359375 51.882812 80.328125 52.597656 C 79.300781 53.316406 78.476562 54.339844 77.945312 55.492188 C 76.886719 57.785156 77.066406 60.597656 78.121094 62.953125 C 78.765625 64.371094 79.777344 65.785156 80.140625 67.527344 C 80.320312 68.40625 80.28125 69.363281 79.910156 70.238281 C 79.71875 70.671875 79.4375 71.074219 79.074219 71.402344 C 78.710938 71.730469 78.265625 71.96875 77.773438 72.082031 C 77.28125 72.1875 76.773438 72.164062 76.304688 72.023438 C 75.835938 71.886719 75.410156 71.648438 75.046875 71.347656 C 74.328125 70.738281 73.855469 69.925781 73.5625 69.09375 C 73.269531 68.265625 73.121094 67.425781 72.96875 66.625 C 72.8125 65.832031 72.652344 65.058594 72.347656 64.378906 C 71.792969 63.121094 70.722656 62.082031 69.457031 61.523438 C 68.1875 60.964844 66.707031 60.878906 65.359375 61.25 C 64.289062 61.542969 63.292969 62.125 62.4375 62.871094 C 61.585938 63.617188 60.871094 64.535156 60.269531 65.527344 C 59.460938 66.894531 58.851562 68.421875 58.996094 69.910156 C 59.0625 70.648438 59.296875 71.378906 59.71875 71.960938 C 60.136719 72.542969 60.746094 73 61.414062 73.171875 C 62.066406 73.351562 62.800781 73.269531 63.417969 72.972656 C 64.039062 72.675781 64.5625 72.152344 64.890625 71.53125 C 65.21875 70.914062 65.351562 70.179688 65.289062 69.46875 C 65.230469 68.757812 64.972656 68.058594 64.570312 67.449219 C 64.164062 66.839844 63.609375 66.320312 62.964844 65.984375 C 62.324219 65.644531 61.589844 65.480469 60.875 65.53125 C 59.921875 65.59375 58.984375 66.058594 58.316406 66.761719 C 57.640625 67.460938 57.21875 68.417969 57.105469 69.398438 C 56.992188 70.378906 57.191406 71.40625 57.621094 72.3125 C 58.054688 73.222656 58.730469 74.019531 59.542969 74.640625 C 60.351562 75.257812 61.292969 75.707031 62.28125 75.910156 C 63.269531 76.113281 64.308594 76.082031 65.269531 75.789062 C 66.222656 75.5 67.105469 74.949219 67.765625 74.207031 C 68.421875 73.46875 68.863281 72.527344 68.988281 71.550781 C 69.082031 70.769531 68.984375 69.960938 68.632812 69.289062 C 68.289062 68.621094 67.699219 68.0625 67.007812 67.851562 C 66.582031 67.710938 66.109375 67.695312 65.660156 67.789062 C 65.214844 67.882812 64.785156 68.097656 64.417969 68.390625 C 63.6875 68.964844 63.234375 69.902344 63.109375 70.863281 C 62.984375 71.828125 63.199219 72.839844 63.617188 73.761719 C 64.039062 74.683594 64.675781 75.515625 65.402344 76.273438 C 66.355469 77.257812 67.453125 78.101562 68.679688 78.636719 C 69.90625 79.171875 71.269531 79.410156 72.558594 79.1875 C 73.699219 78.996094 74.792969 78.449219 75.59375 77.625 C 76.390625 76.804688 76.910156 75.695312 76.984375 74.5625 C 77.078125 73.257812 76.570312 71.902344 75.683594 70.917969 C 74.792969 69.929688 73.507812 69.292969 72.171875 69.113281 C 71.003906 68.949219 69.78125 69.136719 68.636719 69.539062 C 67.492188 69.9375 66.417969 70.570312 65.402344 71.296875 C 63.378906 72.75 61.597656 74.628906 59.460938 76.167969 C 57.15625 77.824219 54.589844 78.96875 52.488281 80.648438 C 51.441406 81.484375 50.5 82.449219 49.839844 83.570312 C 49.1875 84.691406 48.796875 85.980469 48.882812 87.242188 C 48.949219 88.347656 49.378906 89.4375 50.023438 90.378906 C 50.671875 91.316406 51.546875 92.105469 52.519531 92.753906 C 53.351562 93.3125 54.253906 93.761719 55.203125 94.109375 C 56.996094 94.773438 58.941406 95.09375 60.878906 95.1875 C 63.847656 95.332031 66.855469 94.945312 69.871094 94.621094 C 71.246094 94.46875 72.597656 94.339844 73.820312 93.902344 C 75.03125 93.464844 76.167969 92.726562 76.742188 91.660156 C 77.179688 90.875 77.316406 89.910156 77.140625 89.023438 C 76.960938 88.132812 76.460938 87.296875 75.765625 86.703125 C 75.074219 86.101562 74.171875 85.734375 73.253906 85.652344 C 72.332031 85.566406 71.378906 85.769531 70.554688 86.207031 C 69.578125 86.722656 68.773438 87.582031 68.304688 88.585938 C 67.835938 89.589844 67.703125 90.761719 67.917969 91.851562 C 68.175781 93.160156 68.953125 94.386719 70.054688 95.105469 C 71.152344 95.828125 72.601562 96.058594 73.828125 95.648438 C 74.605469 95.394531 75.308594 94.894531 75.84375 94.257812 C 76.378906 93.617188 76.742188 92.828125 76.925781 92.003906 C 77.300781 90.351562 76.890625 88.546875 76.0625 87.019531 C 75.527344 86.042969 74.820312 85.164062 73.964844 84.480469 C 73.109375 83.792969 72.105469 83.289062 71.042969 83.070312 C 69.464844 82.734375 67.734375 83.035156 66.394531 83.914062 C 66.394531 83.914062 66.390625 83.914062 66.390625 83.914062 C 65.046875 84.789062 64.074219 86.261719 63.835938 87.835938 C 63.59375 89.410156 64.089844 91.117188 65.164062 92.277344 C 66.234375 93.441406 67.910156 94.078125 69.464844 93.878906 C 70.6875 93.730469 71.851562 93.085938 72.65625 92.148438 C 73.464844 91.207031 73.921875 89.960938 73.945312 88.714844 C 73.96875 87.214844 73.34375 85.679688 72.238281 84.695312 C 71.6875 84.195312 71.015625 83.824219 70.300781 83.628906 C 69.585938 83.429688 68.824219 83.40625 68.105469 83.570312 C 67.386719 83.730469 66.707031 84.078125 66.164062 84.570312 C 65.621094 85.0625 65.210938 85.703125 64.996094 86.398438 C 64.785156 87.09375 64.769531 87.855469 64.960938 88.550781 C 65.152344 89.246094 65.554688 89.894531 66.097656 90.363281 C 66.683594 90.875 67.457031 91.1875 68.238281 91.253906 C 69.128906 91.328125 70.058594 91.078125 70.800781 90.574219 C 71.550781 90.070312 72.128906 89.300781 72.429688 88.445312 C 72.730469 87.589844 72.753906 86.628906 72.515625 85.746094 C 72.277344 84.863281 71.769531 84.046875 71.089844 83.421875 C 70.410156 82.800781 69.550781 82.367188 68.644531 82.167969 C 67.734375 81.972656 66.769531 82.011719 65.871094 82.265625 C 64.070312 82.769531 62.542969 84.183594 61.761719 85.898438 C 61.46875 86.542969 61.265625 87.257812 61.007812 87.988281 C 60.757812 88.726562 60.433594 89.480469 59.925781 90.15625 C 59.410156 90.839844 58.660156 91.386719 57.761719 91.570312 C 57.3125 91.65625 56.832031 91.632812 56.382812 91.480469 C 55.929688 91.324219 55.523438 91.03125 55.234375 90.628906 C 54.871094 90.113281 54.742188 89.480469 54.847656 88.878906 C 54.949219 88.285156 55.246094 87.75 55.667969 87.347656 C 56.300781 86.742188 57.152344 86.433594 58 86.425781 C 58.839844 86.421875 59.648438 86.675781 60.339844 87.097656 C 61.707031 87.941406 62.605469 89.269531 63.339844 90.546875 C 64.570312 92.636719 65.613281 94.785156 67.175781 96.46875 C 68.730469 98.164062 70.789062 99.382812 73 100.023438 C 75.21875 100.671875 77.601562 100.742188 79.875 100.316406 C 84.457031 99.472656 88.535156 96.609375 91.484375 92.992188 C 92.195312 92.117188 92.84375 91.203125 93.308594 90.214844 C 93.773438 89.222656 94.070312 88.15625 94.050781 87.101562 C 94.035156 85.828125 93.558594 84.542969 92.707031 83.621094 C 91.855469 82.695312 90.605469 82.113281 89.367188 82.117188 C 88.519531 82.109375 87.664062 82.378906 86.84375 82.742188 C 86.023438 83.113281 85.230469 83.605469 84.398438 84.070312 C 83.566406 84.546875 82.679688 84.996094 81.707031 85.265625 C 80.726562 85.539062 79.648438 85.589844 78.632812 85.265625 C 77.957031 85.039062 77.414062 84.695312 76.894531 84.511719 C 75.972656 84.175781 74.894531 84.222656 74.042969 84.671875 C 73.191406 85.113281 72.53125 85.976562 72.382812 86.910156 C 72.304688 87.378906 72.34375 87.871094 72.5 88.316406 C 72.65625 88.761719 72.929688 89.171875 73.285156 89.476562 C 73.640625 89.78125 74.082031 89.988281 74.539062 90.0625 C 74.996094 90.136719 75.480469 90.078125 75.902344 89.890625 C 76.464844 89.660156 76.953125 89.148438 77.53125 88.652344 C 77.820312 88.402344 78.136719 88.152344 78.503906 87.945312 C 78.871094 87.738281 79.292969 87.589844 79.753906 87.554688 C 80.496094 87.515625 81.203125 87.789062 81.738281 88.238281 C 82.265625 88.6875 82.644531 89.253906 82.902344 89.847656 C 83.417969 91.027344 83.550781 92.242188 83.957031 93.261719 C 84.613281 94.945312 86.082031 96.296875 87.785156 96.921875 C 89.503906 97.554688 91.472656 97.464844 93.179688 96.78125 C 94.894531 96.09375 96.363281 94.800781 97.363281 93.234375 C 98.367188 91.660156 98.910156 89.796875 99.019531 87.917969 C 99.089844 86.570312 98.949219 85.210938 98.386719 84.046875 C 98.109375 83.464844 97.730469 82.929688 97.265625 82.503906 C 96.800781 82.078125 96.242188 81.75 95.648438 81.589844 C 94.601562 81.28125 93.414062 81.507812 92.308594 81.898438 C 91.191406 82.304688 90.117188 82.914062 88.9375 83.402344 C 88.550781 83.570312 88.117188 83.722656 87.636719 83.785156 C 87.152344 83.851562 86.621094 83.777344 86.144531 83.507812 C 85.851562 83.328125 85.609375 83.082031 85.441406 82.792969 C 85.273438 82.507812 85.175781 82.191406 85.140625 81.871094 C 85.082031 81.234375 85.246094 80.617188 85.542969 80.101562 C 86.144531 79.085938 87.074219 78.445312 87.835938 77.8125 C 88.210938 77.488281 88.558594 77.160156 88.808594 76.785156 C 89.050781 76.414062 89.222656 76 89.226562 75.597656 C 89.230469 75.398438 89.199219 75.199219 89.132812 75.027344 C 89.0625 74.851562 88.957031 74.691406 88.824219 74.574219 C 88.691406 74.460938 88.53125 74.375 88.371094 74.347656 C 88.210938 74.320312 88.039062 74.339844 87.902344 74.40625 C 87.734375 74.476562 87.585938 74.648438 87.480469 74.84375 C 87.371094 75.042969 87.324219 75.296875 87.296875 75.566406 C 87.25 76.105469 87.359375 76.734375 87.292969 77.445312 C 87.1875 78.371094 86.78125 79.195312 86.320312 79.90625 C 85.867188 80.621094 85.367188 81.261719 85.019531 81.9375 C 84.683594 82.613281 84.449219 83.34375 84.570312 84.007812 C 84.625 84.335938 84.75 84.65625 84.949219 84.898438 C 85.148438 85.140625 85.417969 85.324219 85.703125 85.386719 C 86.046875 85.476562 86.453125 85.382812 86.78125 85.183594 C 87.117188 84.984375 87.382812 84.644531 87.558594 84.265625 C 87.929688 83.5 87.875 82.539062 87.765625 81.578125 C 87.632812 80.609375 87.433594 79.574219 87.5625 78.484375 C 87.628906 77.933594 87.800781 77.382812 88.109375 76.890625 C 88.417969 76.390625 88.878906 75.976562 89.453125 75.746094 C 89.890625 75.578125 90.355469 75.535156 90.796875 75.585938 C 91.238281 75.632812 91.652344 75.757812 92.03125 75.917969 C 92.792969 76.242188 93.4375 76.683594 94.082031 76.988281 C 95.160156 77.5 96.375 77.71875 97.5625 77.621094 C 98.75 77.523438 99.917969 77.109375 100.902344 76.441406 C 101.894531 75.773438 102.710938 74.847656 103.257812 73.785156 C 103.804688 72.71875 104.085938 71.515625 104.066406 70.320312 C 104.039062 67.925781 102.746094 65.5625 100.796875 64.195312 C 98.828125 62.808594 96.1875 62.414062 93.894531 63.089844 C 92.230469 63.574219 90.730469 64.597656 89.59375 65.914062 C 88.445312 67.238281 87.660156 68.863281 87.226562 70.566406 C 87 71.507812 86.867188 72.464844 87.117188 73.308594 C 87.238281 73.730469 87.441406 74.128906 87.726562 74.429688 C 88.015625 74.730469 88.386719 74.953125 88.777344 75.023438 C 89.148438 75.09375 89.554688 75.03125 89.902344 74.859375 C 90.253906 74.6875 90.554688 74.398438 90.757812 74.054688 C 90.964844 73.710938 91.070312 73.304688 91.082031 72.894531 C 91.09375 72.484375 91 72.066406 90.828125 71.683594 C 90.488281 70.914062 89.800781 70.300781 89.015625 69.914062 C 88.226562 69.527344 87.3125 69.375 86.394531 69.355469 C 84.957031 69.328125 83.449219 69.65625 81.871094 69.5625 C 81.078125 69.515625 80.265625 69.339844 79.527344 68.964844 C 78.78125 68.589844 78.132812 67.980469 77.765625 67.191406 C 77.523438 66.65625 77.425781 66.078125 77.449219 65.511719 C 77.472656 64.949219 77.601562 64.402344 77.792969 63.894531 C 78.179688 62.882812 78.78125 62.011719 79.324219 61.171875 C 79.859375 60.324219 80.363281 59.476562 80.542969 58.574219 C 80.636719 58.125 80.65625 57.667969 80.570312 57.238281 C 80.484375 56.808594 80.300781 56.398438 80.019531 56.089844 C 79.648438 55.671875 79.082031 55.417969 78.496094 55.332031 C 77.90625 55.246094 77.28125 55.34375 76.683594 55.535156 C 75.476562 55.917969 74.386719 56.738281 73.144531 57.382812 C 72.085938 57.933594 70.992188 58.324219 69.964844 58.777344 C 68.933594 59.242188 67.949219 59.769531 67.199219 60.523438 C 66.820312 60.902344 66.5 61.332031 66.28125 61.796875 C 66.058594 62.265625 65.929688 62.777344 65.9375 63.277344 C 65.945312 63.78125 66.078125 64.28125 66.339844 64.691406 C 66.601562 65.101562 66.996094 65.429688 67.441406 65.582031 C 67.804688 65.714844 68.230469 65.730469 68.667969 65.707031 C 70.460938 65.601562 72.207031 64.671875 73.285156 63.25 C 74.378906 61.824219 74.804688 59.890625 74.417969 58.148438 C 74.03125 56.394531 72.816406 54.824219 71.230469 54.015625 C 69.628906 53.199219 67.640625 53.148438 66.015625 53.875 C 65.066406 54.296875 64.230469 54.976562 63.539062 55.773438 C 62.84375 56.578125 62.292969 57.511719 61.839844 58.492188 C 61.210938 59.859375 60.769531 61.316406 60.855469 62.757812 C 60.894531 63.480469 61.0625 64.191406 61.375 64.824219 C 61.691406 65.460938 62.152344 66.023438 62.726562 66.410156 C 63.234375 66.761719 63.835938 66.980469 64.453125 67.050781 C 65.070312 67.121094 65.707031 67.042969 66.292969 66.832031 C 67.46875 66.414062 68.441406 65.433594 68.929688 64.277344 C 69.503906 62.921875 69.417969 61.304688 68.800781 59.96875 C 68.179688 58.613281 67.015625 57.519531 65.660156 56.890625 C 64.464844 56.332031 63.109375 56.121094 61.78125 56.195312 C 60.441406 56.269531 59.121094 56.632812 57.882812 57.167969 C 55.386719 58.242188 53.226562 60.039062 51.125 61.808594 C 50.109375 62.664062 49.117188 63.507812 48.257812 64.464844 C 47.394531 65.425781 46.664062 66.496094 46.253906 67.679688 C 45.84375 68.871094 45.753906 70.179688 46.140625 71.335938 C 46.335938 71.914062 46.644531 72.457031 47.054688 72.898438 C 47.46875 73.34375 47.984375 73.691406 48.546875 73.882812 C 49.515625 74.226562 50.636719 74.09375 51.617188 73.6875 C 52.605469 73.273438 53.472656 72.570312 54.253906 71.789062 C 57.375 68.652344 58.941406 64.253906 60.121094 60.039062 C 60.636719 58.183594 61.09375 56.324219 61.859375 54.535156 C 62.628906 52.726562 63.742188 51.023438 65.324219 49.835938 C 66.691406 48.8125 68.378906 48.234375 70.074219 48.277344 C 71.792969 48.320312 73.480469 49.027344 74.660156 50.257812 C 75.390625 51.023438 75.90625 51.949219 76.257812 52.910156 C 76.609375 53.878906 76.8125 54.882812 76.960938 55.875 C 77.265625 57.894531 77.355469 59.863281 78.042969 61.660156 C 78.386719 62.5625 78.867188 63.40625 79.527344 64.070312 C 80.191406 64.742188 81.035156 65.234375 81.9375 65.382812 C 82.839844 65.535156 83.816406 65.339844 84.515625 64.785156 C 84.871094 64.507812 85.160156 64.148438 85.335938 63.742188 C 85.515625 63.335938 85.585938 62.882812 85.53125 62.449219 C 85.46875 61.917969 85.195312 61.398438 84.917969 60.867188 C 84.628906 60.335938 84.324219 59.769531 84.191406 59.113281 C 84.085938 58.550781 84.136719 57.964844 84.324219 57.429688 C 84.511719 56.894531 84.835938 56.414062 85.25 56.03125 C 86.089844 55.265625 87.253906 54.933594 88.355469 55.066406 C 89.46875 55.203125 90.484375 55.78125 91.214844 56.59375 C 91.953125 57.410156 92.40625 58.449219 92.578125 59.507812 C 92.914062 61.589844 92.253906 63.675781 91.332031 65.453125 C 90.394531 67.277344 89.199219 68.898438 88.300781 70.628906 C 87.167969 72.8125 86.449219 75.21875 85.09375 77.289062 C 84.402344 78.347656 83.535156 79.304688 82.46875 79.992188 C 81.382812 80.691406 80.089844 81.078125 78.804688 80.960938 C 77.300781 80.820312 75.914062 79.964844 75.09375 78.738281 C 74.253906 77.484375 74.019531 75.886719 74.410156 74.46875 C 74.660156 73.554688 75.152344 72.722656 75.816406 72.066406 C 76.484375 71.402344 77.324219 70.921875 78.21875 70.671875 C 80.054688 70.160156 82.066406 70.644531 83.480469 71.8125 C 84.261719 72.457031 84.863281 73.285156 85.269531 74.183594 C 85.6875 75.097656 85.90625 76.078125 85.972656 77.054688 C 86.105469 79.054688 85.609375 81.019531 84.921875 82.789062 C 84.078125 84.996094 82.863281 87.042969 81.015625 88.375 C 79.582031 89.398438 77.867188 89.90625 76.207031 90.058594 C 74.472656 90.21875 72.75 90.011719 71.132812 89.691406 C 69.480469 89.359375 67.753906 88.863281 66.214844 88.472656 C 64.53125 88.050781 62.921875 87.707031 61.292969 87.613281 C 60.164062 87.550781 59.039062 87.601562 57.933594 87.546875 C 56.765625 87.492188 55.628906 87.316406 54.601562 86.84375 C 53.519531 86.34375 52.617188 85.496094 52.214844 84.429688 C 52.007812 83.875 51.941406 83.269531 52.046875 82.699219 C 52.152344 82.109375 52.441406 81.5625 52.863281 81.164062 C 53.1875 80.855469 53.585938 80.640625 54 80.523438 C 54.421875 80.398438 54.867188 80.371094 55.289062 80.417969 C 56.171875 80.523438 56.96875 80.941406 57.605469 81.460938 C 58.902344 82.519531 59.875 84.28125 60.722656 85.394531 C 62.527344 87.757812 64.804688 89.15625 66.796875 89.90625 C 69.128906 90.78125 71.210938 90.828125 72.433594 90.761719 C 73.71875 90.691406 74.363281 90.523438 74.367188 90.535156 C 74.367188 90.550781 73.730469 90.742188 72.4375 90.839844 C 71.207031 90.929688 69.109375 90.910156 66.742188 90.046875 C 64.71875 89.3125 62.402344 87.914062 60.554688 85.523438 C 59.683594 84.398438 58.703125 82.652344 57.453125 81.652344 C 56.835938 81.160156 56.078125 80.765625 55.261719 80.679688 C 54.867188 80.636719 54.460938 80.664062 54.074219 80.777344 C 53.699219 80.890625 53.339844 81.085938 53.050781 81.359375 C 52.675781 81.71875 52.417969 82.214844 52.324219 82.75 C 52.230469 83.265625 52.292969 83.816406 52.488281 84.328125 C 52.855469 85.304688 53.710938 86.09375 54.730469 86.5625 C 55.703125 87.011719 56.804688 87.171875 57.945312 87.226562 C 59.035156 87.273438 60.15625 87.21875 61.3125 87.28125 C 62.972656 87.371094 64.609375 87.707031 66.304688 88.128906 C 67.851562 88.511719 69.574219 89 71.207031 89.320312 C 72.800781 89.632812 74.492188 89.828125 76.167969 89.667969 C 77.777344 89.511719 79.421875 89.019531 80.773438 88.039062 C 82.53125 86.78125 83.6875 84.792969 84.519531 82.636719 C 85.179688 80.894531 85.664062 78.988281 85.523438 77.085938 C 85.457031 76.15625 85.246094 75.226562 84.855469 74.371094 C 84.46875 73.535156 83.90625 72.761719 83.1875 72.171875 C 81.886719 71.105469 80.015625 70.660156 78.347656 71.132812 C 77.535156 71.367188 76.765625 71.808594 76.160156 72.414062 C 75.558594 73.011719 75.109375 73.769531 74.886719 74.597656 C 74.539062 75.875 74.757812 77.335938 75.511719 78.457031 C 76.25 79.550781 77.511719 80.328125 78.851562 80.445312 C 80 80.554688 81.183594 80.191406 82.183594 79.550781 C 83.171875 78.914062 83.980469 78.007812 84.648438 76.996094 C 85.945312 75.015625 86.648438 72.625 87.8125 70.375 C 88.730469 68.59375 89.921875 66.96875 90.828125 65.195312 C 91.703125 63.46875 92.339844 61.5 92.007812 59.605469 C 91.84375 58.640625 91.4375 57.703125 90.78125 56.984375 C 90.132812 56.273438 89.238281 55.765625 88.285156 55.65625 C 87.351562 55.546875 86.34375 55.828125 85.65625 56.46875 C 85.65625 56.46875 85.65625 56.472656 85.65625 56.472656 C 85.3125 56.789062 85.042969 57.191406 84.890625 57.628906 C 84.738281 58.066406 84.699219 58.546875 84.785156 59 C 84.882812 59.53125 85.167969 60.042969 85.453125 60.582031 C 85.746094 61.113281 86.039062 61.699219 86.136719 62.371094 C 86.207031 62.921875 86.121094 63.484375 85.898438 63.992188 C 85.675781 64.496094 85.328125 64.933594 84.898438 65.273438 C 84.035156 65.941406 82.898438 66.179688 81.832031 66 C 80.78125 65.820312 79.820312 65.265625 79.078125 64.511719 C 78.347656 63.769531 77.816406 62.851562 77.449219 61.886719 C 76.726562 59.960938 76.617188 57.949219 76.320312 55.96875 C 76.175781 55.003906 75.980469 54.039062 75.644531 53.136719 C 75.3125 52.242188 74.839844 51.390625 74.1875 50.710938 C 73.140625 49.613281 71.605469 48.980469 70.058594 48.941406 C 68.527344 48.902344 66.976562 49.4375 65.726562 50.375 C 64.269531 51.460938 63.230469 53.070312 62.488281 54.804688 C 61.75 56.523438 61.304688 58.355469 60.789062 60.222656 C 59.621094 64.480469 58.007812 68.980469 54.757812 72.289062 C 53.949219 73.117188 53.003906 73.875 51.894531 74.347656 C 50.789062 74.824219 49.496094 74.964844 48.308594 74.566406 C 47.625 74.332031 47.011719 73.917969 46.523438 73.394531 C 46.039062 72.867188 45.675781 72.238281 45.453125 71.566406 C 45.007812 70.222656 45.097656 68.753906 45.558594 67.4375 C 46.015625 66.136719 46.796875 64.980469 47.707031 63.96875 C 48.609375 62.964844 49.625 62.09375 50.640625 61.238281 C 52.742188 59.457031 54.960938 57.621094 57.582031 56.472656 C 58.886719 55.902344 60.289062 55.519531 61.738281 55.433594 C 63.175781 55.347656 64.652344 55.578125 65.984375 56.191406 C 65.984375 56.191406 65.984375 56.195312 65.984375 56.195312 C 67.496094 56.890625 68.789062 58.105469 69.503906 59.640625 C 70.214844 61.167969 70.304688 62.996094 69.648438 64.578125 C 69.082031 65.933594 67.960938 67.058594 66.558594 67.570312 C 65.863281 67.820312 65.105469 67.917969 64.363281 67.832031 C 63.621094 67.75 62.898438 67.488281 62.277344 67.0625 C 61.582031 66.585938 61.03125 65.925781 60.664062 65.175781 C 60.296875 64.433594 60.101562 63.617188 60.058594 62.800781 C 59.976562 61.175781 60.441406 59.589844 61.109375 58.15625 C 61.585938 57.125 62.171875 56.128906 62.925781 55.25 C 63.679688 54.371094 64.609375 53.621094 65.6875 53.136719 C 67.546875 52.304688 69.769531 52.359375 71.601562 53.289062 C 73.414062 54.214844 74.773438 55.96875 75.21875 57.972656 C 75.660156 59.957031 75.1875 62.121094 73.945312 63.753906 C 72.710938 65.371094 70.765625 66.414062 68.71875 66.542969 C 68.21875 66.578125 67.6875 66.550781 67.164062 66.375 C 66.527344 66.148438 65.992188 65.703125 65.632812 65.144531 C 65.28125 64.585938 65.101562 63.933594 65.097656 63.289062 C 65.09375 62.640625 65.246094 62.007812 65.519531 61.4375 C 65.789062 60.871094 66.164062 60.363281 66.601562 59.925781 C 67.476562 59.0625 68.546875 58.476562 69.621094 58.003906 C 70.6875 57.527344 71.765625 57.144531 72.75 56.628906 C 73.902344 56.023438 75.042969 55.179688 76.417969 54.722656 C 77.105469 54.492188 77.859375 54.382812 78.613281 54.484375 C 79.371094 54.582031 80.113281 54.925781 80.65625 55.515625 C 81.054688 55.957031 81.308594 56.503906 81.414062 57.070312 C 81.523438 57.636719 81.503906 58.207031 81.386719 58.753906 C 81.152344 59.832031 80.613281 60.773438 80.050781 61.636719 C 79.503906 62.5 78.933594 63.316406 78.605469 64.199219 C 78.445312 64.640625 78.332031 65.09375 78.320312 65.546875 C 78.304688 65.992188 78.375 66.441406 78.554688 66.828125 C 78.8125 67.40625 79.332031 67.878906 79.925781 68.1875 C 80.519531 68.5 81.214844 68.640625 81.925781 68.6875 C 83.34375 68.78125 84.835938 68.453125 86.410156 68.476562 C 87.417969 68.488281 88.453125 68.667969 89.398438 69.121094 C 90.347656 69.570312 91.175781 70.328125 91.632812 71.320312 C 91.859375 71.8125 91.976562 72.359375 91.96875 72.914062 C 91.957031 73.46875 91.808594 74.019531 91.523438 74.507812 C 91.234375 74.992188 90.8125 75.398438 90.296875 75.65625 C 89.78125 75.910156 89.1875 76 88.613281 75.898438 C 88.015625 75.78125 87.480469 75.46875 87.082031 75.039062 C 86.679688 74.613281 86.40625 74.09375 86.257812 73.550781 C 85.964844 72.464844 86.09375 71.355469 86.359375 70.347656 C 86.816406 68.523438 87.667969 66.773438 88.914062 65.328125 C 90.152344 63.886719 91.792969 62.765625 93.636719 62.21875 C 96.203125 61.464844 99.101562 61.902344 101.320312 63.449219 C 103.515625 64.992188 104.9375 67.59375 104.984375 70.304688 C 105.003906 71.652344 104.691406 73 104.074219 74.207031 C 103.460938 75.40625 102.542969 76.449219 101.421875 77.207031 C 100.300781 77.964844 98.988281 78.429688 97.636719 78.542969 C 96.289062 78.652344 94.914062 78.410156 93.6875 77.828125 C 92.953125 77.480469 92.320312 77.046875 91.671875 76.777344 C 91.347656 76.640625 91.023438 76.539062 90.699219 76.507812 C 90.382812 76.480469 90.0625 76.503906 89.789062 76.617188 C 89.433594 76.75 89.121094 77.039062 88.898438 77.386719 C 88.675781 77.734375 88.546875 78.160156 88.488281 78.601562 C 88.363281 79.488281 88.566406 80.445312 88.691406 81.457031 C 88.835938 82.472656 88.871094 83.601562 88.410156 84.65625 C 88.175781 85.179688 87.792969 85.65625 87.277344 85.980469 C 86.761719 86.308594 86.117188 86.441406 85.488281 86.304688 C 84.980469 86.179688 84.535156 85.882812 84.21875 85.488281 C 83.90625 85.097656 83.710938 84.628906 83.640625 84.152344 C 83.503906 83.203125 83.765625 82.277344 84.183594 81.503906 C 84.589844 80.726562 85.097656 80.066406 85.523438 79.398438 C 85.933594 78.730469 86.292969 78.046875 86.351562 77.347656 C 86.410156 76.816406 86.300781 76.191406 86.351562 75.488281 C 86.375 75.136719 86.457031 74.769531 86.632812 74.414062 C 86.808594 74.054688 87.105469 73.738281 87.5 73.546875 C 87.828125 73.394531 88.195312 73.351562 88.542969 73.414062 C 88.886719 73.480469 89.203125 73.640625 89.457031 73.867188 C 89.707031 74.09375 89.898438 74.375 90.015625 74.679688 C 90.132812 74.984375 90.1875 75.304688 90.175781 75.621094 C 90.15625 76.25 89.929688 76.835938 89.59375 77.316406 C 89.265625 77.796875 88.863281 78.191406 88.453125 78.535156 C 88.453125 78.535156 88.453125 78.539062 88.453125 78.539062 C 87.648438 79.234375 86.789062 79.792969 86.375 80.574219 C 86.167969 80.957031 86.042969 81.382812 86.09375 81.769531 C 86.113281 81.960938 86.171875 82.148438 86.265625 82.308594 C 86.359375 82.464844 86.488281 82.601562 86.636719 82.6875 C 86.863281 82.835938 87.195312 82.867188 87.523438 82.835938 C 87.855469 82.800781 88.203125 82.667969 88.570312 82.519531 C 89.675781 82.058594 90.765625 81.441406 91.976562 80.996094 C 93.1875 80.539062 94.566406 80.304688 95.90625 80.660156 C 96.660156 80.871094 97.351562 81.269531 97.917969 81.792969 C 98.484375 82.316406 98.933594 82.949219 99.257812 83.632812 C 99.902344 85 100.074219 86.519531 99.984375 87.976562 C 99.871094 90 99.28125 92.019531 98.179688 93.757812 C 97.082031 95.488281 95.464844 96.90625 93.542969 97.683594 C 91.625 98.460938 89.421875 98.554688 87.453125 97.839844 C 85.488281 97.125 83.824219 95.585938 83.042969 93.621094 C 82.578125 92.433594 82.453125 91.234375 82.003906 90.246094 C 81.78125 89.757812 81.492188 89.308594 81.109375 89 C 80.730469 88.695312 80.257812 88.496094 79.820312 88.539062 C 79.542969 88.550781 79.257812 88.660156 78.984375 88.808594 C 78.707031 88.957031 78.445312 89.167969 78.179688 89.398438 C 77.648438 89.867188 77.082031 90.433594 76.300781 90.796875 C 75.699219 91.058594 75.027344 91.140625 74.382812 91.039062 C 73.738281 90.933594 73.132812 90.648438 72.640625 90.226562 C 72.148438 89.804688 71.777344 89.253906 71.566406 88.644531 C 71.351562 88.035156 71.300781 87.378906 71.40625 86.75 C 71.621094 85.480469 72.453125 84.378906 73.585938 83.789062 C 74.710938 83.210938 76.054688 83.148438 77.230469 83.578125 C 77.886719 83.816406 78.421875 84.15625 78.941406 84.320312 C 79.714844 84.582031 80.601562 84.527344 81.445312 84.304688 C 82.289062 84.078125 83.097656 83.660156 83.910156 83.203125 C 84.714844 82.746094 85.535156 82.242188 86.433594 81.832031 C 87.328125 81.421875 88.320312 81.125 89.363281 81.117188 C 90.910156 81.121094 92.40625 81.8125 93.441406 82.941406 C 94.472656 84.070312 95.035156 85.574219 95.054688 87.089844 C 95.066406 88.335938 94.738281 89.550781 94.21875 90.644531 C 93.699219 91.734375 93.007812 92.71875 92.265625 93.628906 C 89.203125 97.40625 84.929688 100.390625 80.0625 101.3125 C 77.640625 101.765625 75.105469 101.691406 72.714844 101 C 70.335938 100.308594 68.121094 98.996094 66.429688 97.160156 C 64.746094 95.320312 63.660156 93.113281 62.460938 91.0625 C 61.722656 89.832031 60.941406 88.625 59.8125 87.972656 C 59.257812 87.640625 58.628906 87.433594 58.011719 87.449219 C 57.402344 87.460938 56.785156 87.675781 56.378906 88.082031 C 56.105469 88.347656 55.90625 88.695312 55.855469 89.046875 C 55.800781 89.394531 55.871094 89.773438 56.066406 90.039062 C 56.214844 90.253906 56.453125 90.417969 56.714844 90.511719 C 56.980469 90.605469 57.28125 90.617188 57.574219 90.566406 C 58.160156 90.46875 58.703125 90.046875 59.113281 89.53125 C 59.523438 89.007812 59.792969 88.34375 60.042969 87.652344 C 60.28125 86.957031 60.496094 86.210938 60.828125 85.476562 C 61.726562 83.492188 63.46875 81.890625 65.589844 81.277344 C 66.648438 80.976562 67.777344 80.929688 68.859375 81.164062 C 69.941406 81.398438 70.960938 81.914062 71.785156 82.664062 C 72.605469 83.414062 73.214844 84.394531 73.511719 85.476562 C 73.804688 86.558594 73.773438 87.722656 73.402344 88.785156 C 73.03125 89.851562 72.320312 90.789062 71.378906 91.425781 C 70.441406 92.0625 69.292969 92.375 68.152344 92.28125 C 67.152344 92.199219 66.1875 91.804688 65.421875 91.140625 C 64.71875 90.53125 64.210938 89.71875 63.964844 88.824219 C 63.722656 87.929688 63.742188 86.980469 64.007812 86.097656 C 64.277344 85.214844 64.789062 84.417969 65.46875 83.804688 C 66.152344 83.191406 66.988281 82.761719 67.878906 82.5625 C 68.765625 82.363281 69.699219 82.386719 70.574219 82.628906 C 71.449219 82.871094 72.261719 83.320312 72.933594 83.925781 C 74.273438 85.140625 75.011719 86.933594 74.980469 88.734375 C 74.953125 90.21875 74.414062 91.6875 73.445312 92.824219 C 72.472656 93.957031 71.085938 94.722656 69.59375 94.910156 C 67.679688 95.144531 65.707031 94.398438 64.402344 92.980469 C 63.105469 91.566406 62.519531 89.570312 62.808594 87.679688 C 63.101562 85.792969 64.230469 84.082031 65.824219 83.042969 C 67.417969 82.007812 69.40625 81.65625 71.261719 82.050781 C 72.492188 82.3125 73.644531 82.882812 74.617188 83.667969 C 75.589844 84.449219 76.382812 85.433594 76.976562 86.515625 C 77.917969 88.222656 78.363281 90.265625 77.945312 92.226562 C 77.730469 93.207031 77.292969 94.140625 76.644531 94.925781 C 75.996094 95.707031 75.132812 96.316406 74.152344 96.640625 C 72.589844 97.144531 70.839844 96.875 69.480469 95.980469 C 68.128906 95.082031 67.199219 93.632812 66.890625 92.050781 C 66.636719 90.742188 66.796875 89.359375 67.359375 88.144531 C 67.921875 86.933594 68.878906 85.914062 70.066406 85.28125 C 71.066406 84.753906 72.210938 84.511719 73.347656 84.609375 C 74.480469 84.710938 75.578125 85.164062 76.449219 85.910156 C 77.316406 86.65625 77.933594 87.6875 78.164062 88.816406 C 78.390625 89.949219 78.214844 91.152344 77.652344 92.167969 C 76.886719 93.515625 75.5625 94.414062 74.164062 94.890625 C 72.78125 95.371094 71.355469 95.515625 69.980469 95.660156 C 66.980469 95.988281 63.921875 96.375 60.832031 96.234375 C 58.808594 96.144531 56.757812 95.800781 54.839844 95.085938 C 53.824219 94.710938 52.851562 94.226562 51.9375 93.625 C 50.875 92.921875 49.90625 92.039062 49.164062 90.972656 C 48.417969 89.902344 47.925781 88.632812 47.839844 87.304688 C 47.75 85.796875 48.1875 84.308594 48.9375 83.042969 C 49.691406 81.777344 50.714844 80.714844 51.839844 79.828125 C 54.085938 78.050781 56.664062 76.894531 58.851562 75.316406 C 60.914062 73.835938 62.730469 71.929688 64.792969 70.449219 C 65.859375 69.679688 67.019531 69.003906 68.289062 68.550781 C 69.558594 68.101562 70.945312 67.898438 72.3125 68.078125 C 73.882812 68.289062 75.378906 69.035156 76.457031 70.21875 C 77.535156 71.40625 78.128906 73.019531 78.027344 74.632812 C 77.925781 76.03125 77.308594 77.359375 76.339844 78.355469 C 75.371094 79.347656 74.085938 79.992188 72.730469 80.21875 C 71.203125 80.464844 69.644531 80.203125 68.261719 79.59375 C 66.878906 78.984375 65.671875 78.058594 64.652344 76.996094 C 63.867188 76.183594 63.160156 75.253906 62.671875 74.195312 C 62.179688 73.132812 61.933594 71.933594 62.074219 70.734375 C 62.21875 69.53125 62.800781 68.367188 63.765625 67.578125 C 64.25 67.1875 64.828125 66.90625 65.445312 66.773438 C 66.0625 66.640625 66.714844 66.664062 67.328125 66.859375 C 68.3125 67.183594 69.109375 67.917969 69.558594 68.816406 C 70.011719 69.710938 70.144531 70.722656 70.015625 71.683594 C 69.863281 72.878906 69.335938 74.003906 68.539062 74.898438 C 67.746094 75.789062 66.703125 76.4375 65.570312 76.78125 C 64.433594 77.125 63.222656 77.164062 62.070312 76.925781 C 60.917969 76.683594 59.835938 76.171875 58.910156 75.464844 C 57.980469 74.75 57.203125 73.828125 56.6875 72.761719 C 56.171875 71.6875 55.945312 70.476562 56.078125 69.28125 C 56.214844 68.082031 56.726562 66.929688 57.566406 66.046875 C 58.410156 65.160156 59.570312 64.589844 60.804688 64.5 C 61.722656 64.4375 62.644531 64.644531 63.449219 65.070312 C 64.253906 65.496094 64.933594 66.128906 65.429688 66.878906 C 65.925781 67.621094 66.238281 68.484375 66.320312 69.378906 C 66.398438 70.28125 66.226562 71.203125 65.804688 72.011719 C 65.378906 72.824219 64.699219 73.496094 63.867188 73.902344 C 63.027344 74.304688 62.054688 74.410156 61.148438 74.167969 C 60.21875 73.914062 59.421875 73.324219 58.882812 72.5625 C 58.339844 71.800781 58.042969 70.898438 57.96875 69.996094 C 57.835938 68.1875 58.492188 66.457031 59.390625 65 C 60.03125 63.933594 60.8125 62.933594 61.761719 62.101562 C 62.714844 61.261719 63.84375 60.605469 65.085938 60.261719 C 66.660156 59.828125 68.371094 59.929688 69.867188 60.585938 C 71.371094 61.246094 72.613281 62.460938 73.28125 63.964844 C 73.636719 64.78125 73.820312 65.625 73.972656 66.433594 C 74.132812 67.246094 74.265625 68.03125 74.527344 68.75 C 74.789062 69.460938 75.160156 70.125 75.699219 70.558594 C 75.96875 70.78125 76.269531 70.953125 76.589844 71.042969 C 76.90625 71.136719 77.242188 71.15625 77.550781 71.085938 C 77.855469 71.019531 78.152344 70.855469 78.394531 70.640625 C 78.640625 70.421875 78.835938 70.136719 78.976562 69.828125 C 79.261719 69.203125 79.277344 68.449219 79.140625 67.722656 C 78.875 66.261719 77.890625 64.925781 77.195312 63.371094 C 76.019531 60.78125 75.839844 57.691406 77.023438 55.070312 C 77.625 53.757812 78.5625 52.597656 79.75 51.769531 C 80.945312 50.9375 82.386719 50.457031 83.847656 50.453125 C 85.976562 50.457031 88.027344 51.472656 89.386719 53.074219 C 90.511719 54.402344 91.164062 56.078125 91.308594 57.785156 C 91.453125 59.5 91.105469 61.226562 90.386719 62.765625 C 88.933594 65.847656 86.105469 68.082031 83.007812 69.300781 C 81.648438 69.847656 80.160156 70.21875 78.636719 70.101562 C 77.871094 70.042969 77.109375 69.84375 76.414062 69.488281 C 75.710938 69.132812 75.089844 68.609375 74.632812 67.953125 C 74.078125 67.128906 73.808594 66.152344 73.796875 65.191406 C 73.78125 64.234375 73.988281 63.296875 74.324219 62.433594 C 75 60.710938 76.097656 59.261719 77 57.800781 C 77.738281 56.59375 78.398438 55.285156 79.335938 54.101562 C 79.804688 53.507812 80.347656 52.957031 80.980469 52.503906 C 81.617188 52.050781 82.347656 51.710938 83.136719 51.554688 C 84.347656 51.328125 85.601562 51.566406 86.664062 52.128906 C 87.722656 52.691406 88.597656 53.53125 89.261719 54.492188 C 90.578125 56.417969 91.113281 58.695312 91.582031 60.84375 C 92.183594 63.539062 92.769531 66.285156 92.734375 69.105469 C 92.703125 71.945312 91.9375 74.867188 90.101562 77.09375 C 88.566406 78.921875 86.40625 80.125 84.140625 80.699219 C 81.867188 81.273438 79.496094 81.265625 77.222656 80.9375 C 73.53125 80.414062 69.867188 78.960938 67.257812 76.253906 C 66.519531 75.484375 65.875 74.609375 65.402344 73.636719 C 64.929688 72.65625 64.644531 71.574219 64.636719 70.472656 C 64.625 69.363281 64.910156 68.246094 65.507812 67.292969 C 66.109375 66.335938 67.035156 65.578125 68.125 65.226562 C 69 64.953125 69.921875 64.941406 70.785156 65.105469 C 72.742188 65.464844 74.488281 66.640625 75.628906 68.230469 C 76.773438 69.832031 77.324219 71.800781 77.285156 73.738281 C 77.246094 75.683594 76.640625 77.582031 75.660156 79.226562 C 74.671875 80.878906 73.324219 82.285156 71.804688 83.417969 C 70.726562 84.222656 69.53125 84.90625 68.214844 85.300781 C 66.890625 85.699219 65.441406 85.765625 64.089844 85.355469 C 62.972656 85.007812 61.980469 84.34375 61.207031 83.488281 C 60.433594 82.632812 59.875 81.601562 59.539062 80.519531 C 58.871094 78.339844 59.050781 76.011719 59.648438 73.886719 C 60.675781 70.214844 62.8125 67.007812 65.074219 64.085938 C 67.542969 60.871094 70.359375 57.78125 74.039062 55.984375 C 75.898438 55.082031 77.953125 54.554688 80.027344 54.59375 C 82.117188 54.632812 84.207031 55.285156 85.875 56.558594 C 87.066406 57.46875 88.015625 58.683594 88.601562 60.058594 C 89.1875 61.441406 89.394531 62.976562 89.191406 64.457031 C 88.96875 66.042969 88.289062 67.53125 87.335938 68.78125 C 86.378906 70.035156 85.167969 71.0625 83.851562 71.878906 C 81.207031 73.519531 78.195312 74.359375 75.308594 75.164062 C 73.667969 75.628906 71.980469 76.101562 70.210938 76.121094 C 69.320312 76.132812 68.421875 76.015625 67.5625 75.726562 C 66.703125 75.433594 65.894531 74.957031 65.246094 74.292969 C 64.644531 73.671875 64.207031 72.910156 63.9375 72.105469 C 63.664062 71.300781 63.546875 70.457031 63.539062 69.628906 C 63.527344 67.964844 63.917969 66.363281 64.300781 64.828125 C 64.648438 63.40625 65.015625 61.945312 65.742188 60.601562 C 66.109375 59.929688 66.570312 59.296875 67.140625 58.765625 C 67.710938 58.226562 68.402344 57.800781 69.164062 57.5625 C 70.117188 57.273438 71.132812 57.289062 72.070312 57.546875 C 73.007812 57.808594 73.863281 58.289062 74.59375 58.898438 C 76.058594 60.125 77.027344 61.777344 77.816406 63.417969 C 78.683594 65.203125 79.414062 67.070312 79.792969 69.03125 C 80.175781 71.011719 80.171875 73.085938 79.605469 75.027344 C 79.347656 75.902344 78.96875 76.75 78.429688 77.5 C 77.886719 78.257812 77.171875 78.902344 76.320312 79.320312 C 75.464844 79.738281 74.476562 79.898438 73.523438 79.710938 C 72.566406 79.523438 71.683594 78.960938 71.148438 78.128906 C 70.691406 77.402344 70.519531 76.539062 70.597656 75.714844 C 70.675781 74.890625 70.96875 74.113281 71.378906 73.429688 C 72.203125 72.0625 73.414062 71.046875 74.480469 70.023438 C 75.664062 68.875 76.789062 67.597656 78.246094 66.660156 C 78.976562 66.1875 79.789062 65.820312 80.664062 65.648438 C 81.542969 65.472656 82.476562 65.515625 83.328125 65.839844 C 84.09375 66.136719 84.757812 66.644531 85.265625 67.261719 C 85.773438 67.878906 86.136719 68.597656 86.378906 69.339844 C 86.855469 70.835938 86.875 72.394531 86.839844 73.882812 C 86.804688 75.570312 86.710938 77.273438 86.347656 78.941406 C 85.984375 80.625 85.324219 82.269531 84.261719 83.640625 C 83.183594 85.03125 81.660156 86.097656 79.929688 86.46875 C 79.058594 86.652344 78.144531 86.652344 77.277344 86.441406 C 76.402344 86.230469 75.582031 85.800781 74.921875 85.191406 C 74.222656 84.535156 73.726562 83.710938 73.378906 82.855469 C 73.03125 82 72.8125 81.117188 72.609375 80.253906 C 72.390625 79.320312 72.175781 78.371094 72.117188 77.382812 C 72.054688 76.386719 72.175781 75.355469 72.59375 74.417969 C 73.019531 73.472656 73.796875 72.664062 74.792969 72.292969 C 75.296875 72.109375 75.84375 72.050781 76.378906 72.140625 C 76.917969 72.230469 77.425781 72.476562 77.828125 72.855469 C 78.21875 73.230469 78.484375 73.710938 78.628906 74.207031 C 78.777344 74.707031 78.816406 75.214844 78.800781 75.710938 C 78.769531 76.699219 78.535156 77.625 78.476562 78.511719 C 78.449219 78.960938 78.460938 79.398438 78.554688 79.8125 C 78.648438 80.222656 78.816406 80.617188 79.074219 80.917969 C 79.335938 81.21875 79.683594 81.449219 80.054688 81.511719 C 80.417969 81.574219 80.824219 81.492188 81.085938 81.257812 C 81.359375 81.039062 81.507812 80.652344 81.566406 80.253906 C 81.625 79.847656 81.574219 79.40625 81.527344 78.941406 C 81.472656 78.476562 81.425781 77.980469 81.496094 77.460938 C 81.566406 76.9375 81.808594 76.40625 82.253906 76.035156 C 82.53125 75.816406 82.863281 75.6875 83.203125 75.648438 C 83.542969 75.613281 83.882812 75.664062 84.191406 75.78125 C 84.8125 76.023438 85.289062 76.496094 85.597656 77.039062 C 85.910156 77.582031 86.078125 78.195312 86.105469 78.808594 C 86.132812 79.425781 86.023438 80.042969 85.800781 80.609375 C 85.355469 81.746094 84.492188 82.667969 83.484375 83.292969 C 82.46875 83.921875 81.324219 84.273438 80.183594 84.460938 C 79.039062 84.652344 77.882812 84.6875 76.757812 84.714844 C 74.410156 84.773438 72.066406 84.785156 69.765625 84.320312 C 67.421875 83.847656 65.15625 82.820312 63.519531 81.09375 C 62.140625 79.632812 61.289062 77.636719 61.433594 75.636719 C 61.511719 74.625 61.855469 73.632812 62.4375 72.804688 C 63.03125 71.96875 63.875 71.3125 64.839844 70.976562 C 65.667969 70.6875 66.558594 70.640625 67.402344 70.789062 C 68.253906 70.941406 69.054688 71.28125 69.765625 71.746094 C 71.195312 72.6875 72.234375 74.078125 73.011719 75.523438 C 73.644531 76.6875 74.140625 77.945312 74.269531 79.277344 C 74.398438 80.632812 74.09375 82.050781 73.257812 83.136719 C 72.640625 83.929688 71.746094 84.5 70.765625 84.699219 C 69.769531 84.898438 68.710938 84.703125 67.871094 84.144531 C 67.019531 83.582031 66.433594 82.652344 66.300781 81.648438 C 66.175781 80.625 66.539062 79.570312 67.273438 78.863281 C 67.980469 78.191406 68.96875 77.878906 69.914062 77.949219 C 70.871094 78.019531 71.765625 78.449219 72.453125 79.078125 C 73.074219 79.644531 73.539062 80.378906 73.765625 81.183594 C 74 82 73.980469 82.878906 73.695312 83.671875 C 73.410156 84.476562 72.851562 85.175781 72.128906 85.617188 C 71.394531 86.0625 70.503906 86.226562 69.667969 86.058594 C 68.835938 85.886719 68.105469 85.402344 67.578125 84.773438 C 67.046875 84.132812 66.710938 83.359375 66.546875 82.574219 C 66.214844 80.976562 66.507812 79.351562 66.828125 77.851562 C 67.359375 75.332031 68.015625 72.863281 69.472656 70.8125 C 70.226562 69.761719 71.179688 68.863281 72.304688 68.261719 C 73.453125 67.640625 74.777344 67.363281 76.050781 67.53125 C 77.578125 67.746094 78.9375 68.585938 79.933594 69.675781 C 80.957031 70.796875 81.636719 72.167969 82.09375 73.542969 C 83.03125 76.335938 83.105469 79.316406 82.183594 81.910156 C 81.699219 83.277344 80.941406 84.519531 79.96875 85.527344 C 78.957031 86.578125 77.714844 87.363281 76.386719 87.796875 C 74.796875 88.316406 73.105469 88.324219 71.578125 87.9375 C 69.957031 87.527344 68.515625 86.675781 67.378906 85.597656 C 65.945312 84.230469 64.992188 82.503906 64.457031 80.78125 C 63.867188 78.886719 63.746094 76.945312 63.890625 75.171875 C 64.257812 70.648438 66.3125 67.023438 68.453125 64.679688 C 71 61.890625 73.886719 60.558594 75.625 59.945312 C 77.464844 59.300781 78.46875 59.21875 78.472656 59.234375 Z M 78.472656 59.234375 " fill-opacity="1" fill-rule="nonzero"/></g></svg>