<svg xmlns="http://www.w3.org/2000/svg" xmlns:xlink="http://www.w3.org/1999/xlink" width="200" zoomAndPan="magnify" viewBox="0 0 150 149.999998" height="200" preserveAspectRatio="xMidYMid meet" version="1.0"><defs><clipPath id="5590fd8e54"><path d="M 87 77 L 94.351562 77 L 94.351562 98 L 87 98 Z M 87 77 " clip-rule="nonzero"/></clipPath><clipPath id="542f45416c"><path d="M 55.351562 97 L 61 97 L 61 105 L 55.351562 105 Z M 55.351562 97 " clip-rule="nonzero"/></clipPath><clipPath id="2b05d4b8d6"><path d="M 89 92 L 94.351562 92 L 94.351562 101 L 89 101 Z M 89 92 " clip-rule="nonzero"/></clipPath></defs><rect x="-15" width="180" fill="#ffffff" y="-15" height="179.999997" fill-opacity="1"/><rect x="-15" width="180" fill="#ffffff" y="-15" height="179.999997" fill-opacity="1"/><path fill="#4f3431" d="M 74.464844 47.605469 C 72.992188 48.632812 71.902344 50.621094 72.332031 52.449219 C 72.394531 52.707031 72.492188 52.96875 72.585938 53.214844 C 72.605469 53.265625 72.597656 53.351562 72.605469 53.414062 C 72.613281 53.484375 72.636719 53.539062 72.664062 53.570312 C 72.714844 53.628906 72.785156 53.660156 72.882812 53.617188 C 73.007812 53.570312 73.109375 53.445312 73.183594 53.273438 C 73.257812 53.109375 73.304688 52.898438 73.34375 52.710938 C 73.546875 52.953125 73.886719 53.125 74.148438 53.269531 C 74.164062 53.277344 74.265625 53.34375 74.289062 53.351562 C 74.398438 53.398438 74.460938 53.324219 74.476562 53.308594 C 74.515625 53.253906 74.542969 53.144531 74.535156 53.003906 C 74.523438 52.796875 74.453125 52.496094 74.453125 52.394531 C 74.453125 52.09375 74.496094 51.640625 74.585938 51.234375 C 74.597656 51.316406 74.605469 51.394531 74.613281 51.476562 C 74.6875 52.191406 75.03125 52.824219 75.355469 53.453125 C 75.382812 53.507812 75.425781 53.527344 75.457031 53.535156 C 75.496094 53.546875 75.539062 53.542969 75.578125 53.519531 C 75.597656 53.507812 75.621094 53.488281 75.640625 53.453125 C 75.648438 53.4375 75.667969 53.394531 75.667969 53.386719 C 75.800781 53.15625 75.894531 52.851562 75.992188 52.554688 L 75.992188 52.621094 C 75.992188 52.777344 76.035156 52.859375 76.070312 52.890625 C 76.101562 52.921875 76.140625 52.9375 76.179688 52.941406 C 76.21875 52.945312 76.269531 52.933594 76.316406 52.898438 C 76.347656 52.875 76.382812 52.832031 76.421875 52.773438 C 76.480469 52.671875 76.546875 52.515625 76.601562 52.359375 C 76.640625 52.25 76.773438 51.839844 76.902344 51.515625 C 76.917969 51.933594 77.007812 52.320312 77.121094 52.734375 C 77.152344 52.851562 77.175781 52.96875 77.21875 53.082031 C 77.226562 53.113281 77.238281 53.175781 77.25 53.207031 C 77.261719 53.246094 77.285156 53.273438 77.300781 53.285156 C 77.347656 53.332031 77.402344 53.335938 77.453125 53.320312 C 77.480469 53.3125 77.527344 53.292969 77.558594 53.222656 C 77.621094 53.074219 77.636719 52.882812 77.632812 52.675781 C 77.628906 52.410156 77.589844 52.121094 77.601562 51.90625 C 77.628906 51.367188 77.882812 50.976562 78.210938 50.632812 C 78.410156 50.421875 78.632812 50.230469 78.855469 50.035156 C 78.660156 50.710938 78.613281 51.472656 78.660156 52.132812 C 78.679688 52.402344 78.761719 52.632812 78.851562 52.742188 C 78.925781 52.835938 79.019531 52.863281 79.101562 52.847656 C 79.160156 52.835938 79.242188 52.78125 79.300781 52.65625 C 79.320312 52.683594 79.34375 52.710938 79.359375 52.738281 C 79.457031 52.90625 79.5625 53.105469 79.625 53.191406 C 79.664062 53.242188 79.699219 53.269531 79.726562 53.28125 C 79.742188 53.285156 79.871094 53.328125 79.929688 53.203125 C 79.941406 53.183594 79.976562 53.082031 79.976562 53.078125 C 79.996094 53.023438 80.0625 52.757812 80.113281 52.523438 C 80.300781 52.910156 80.53125 53.273438 80.699219 53.667969 C 81.0625 54.519531 80.976562 54.863281 80.8125 55.269531 C 80.691406 55.566406 80.539062 55.898438 80.476562 56.441406 C 80.464844 56.554688 80.519531 56.675781 80.613281 56.78125 C 80.710938 56.894531 80.847656 56.996094 80.917969 57.066406 C 80.957031 57.105469 81.042969 57.144531 81.152344 57.089844 C 81.277344 57.03125 81.53125 56.820312 81.570312 56.785156 C 81.972656 56.433594 82.84375 55.625 83.644531 55.359375 C 83.929688 55.265625 84.203125 55.242188 84.429688 55.359375 C 84.582031 55.4375 84.710938 55.578125 84.816406 55.789062 C 84.957031 56.070312 84.878906 56.417969 84.691406 56.777344 C 84.378906 57.375 83.761719 57.996094 83.160156 58.453125 L 83.128906 58.476562 C 83.074219 58.40625 83.015625 58.34375 82.949219 58.285156 C 82.820312 58.171875 82.621094 58.121094 82.402344 58.132812 C 82.109375 58.152344 81.78125 58.277344 81.574219 58.457031 C 81.441406 58.570312 81.355469 58.710938 81.34375 58.855469 C 81.328125 59.007812 81.382812 59.167969 81.5625 59.324219 C 81.65625 59.40625 81.804688 59.441406 82 59.40625 C 82.265625 59.359375 82.644531 59.175781 83.046875 58.910156 C 83.179688 59.164062 83.257812 59.472656 83.316406 59.800781 C 83.460938 60.644531 83.433594 61.617188 83.578125 62.242188 C 83.597656 62.324219 83.679688 62.375 83.761719 62.355469 C 83.847656 62.335938 83.898438 62.253906 83.878906 62.171875 C 83.734375 61.550781 83.761719 60.585938 83.617188 59.75 C 83.554688 59.371094 83.453125 59.023438 83.296875 58.734375 L 83.34375 58.699219 C 83.984375 58.214844 84.632812 57.550781 84.964844 56.921875 C 85.203125 56.460938 85.273438 56.015625 85.09375 55.652344 C 84.953125 55.367188 84.773438 55.191406 84.570312 55.085938 C 84.273438 54.933594 83.917969 54.945312 83.546875 55.066406 C 82.710938 55.34375 81.789062 56.183594 81.367188 56.554688 C 81.335938 56.578125 81.175781 56.71875 81.066406 56.785156 C 81.011719 56.738281 80.945312 56.6875 80.890625 56.628906 C 80.855469 56.59375 80.824219 56.558594 80.800781 56.519531 C 80.792969 56.503906 80.78125 56.492188 80.785156 56.476562 C 80.839844 55.96875 80.988281 55.664062 81.097656 55.382812 C 81.285156 54.917969 81.398438 54.523438 80.980469 53.546875 C 80.789062 53.089844 80.511719 52.675781 80.316406 52.222656 C 80.308594 52.199219 80.242188 52.035156 80.230469 52.003906 C 80.175781 51.871094 80.03125 51.914062 80.027344 51.914062 C 80.007812 51.921875 79.984375 51.9375 79.960938 51.964844 C 79.941406 51.988281 79.914062 52.039062 79.890625 52.109375 C 79.839844 52.265625 79.777344 52.566406 79.734375 52.773438 L 79.707031 52.726562 C 79.625 52.582031 79.539062 52.433594 79.464844 52.355469 C 79.390625 52.273438 79.308594 52.25 79.25 52.253906 C 79.179688 52.257812 79.09375 52.296875 79.050781 52.445312 C 79.050781 52.453125 79.046875 52.460938 79.042969 52.46875 C 79.003906 52.382812 78.980469 52.253906 78.96875 52.113281 C 78.90625 51.285156 79 50.28125 79.382812 49.539062 C 79.417969 49.472656 79.394531 49.390625 79.335938 49.34375 C 79.273438 49.300781 79.1875 49.308594 79.132812 49.363281 C 78.773438 49.730469 78.339844 50.050781 77.984375 50.417969 C 77.609375 50.816406 77.324219 51.269531 77.292969 51.890625 C 77.289062 51.972656 77.289062 52.066406 77.296875 52.160156 C 77.234375 51.863281 77.199219 51.566406 77.210938 51.246094 C 77.21875 51.105469 77.207031 51.019531 77.191406 50.976562 C 77.167969 50.910156 77.128906 50.878906 77.097656 50.859375 C 77.035156 50.832031 76.925781 50.828125 76.835938 50.953125 C 76.675781 51.179688 76.375 52.082031 76.3125 52.257812 L 76.296875 52.300781 C 76.292969 52.199219 76.289062 52.09375 76.308594 51.992188 C 76.3125 51.949219 76.351562 51.859375 76.367188 51.8125 C 76.378906 51.777344 76.378906 51.746094 76.378906 51.734375 C 76.375 51.65625 76.335938 51.621094 76.300781 51.601562 C 76.277344 51.589844 76.183594 51.542969 76.09375 51.644531 C 75.917969 51.847656 75.804688 52.144531 75.699219 52.453125 C 75.632812 52.65625 75.570312 52.863281 75.492188 53.046875 C 75.230469 52.539062 74.976562 52.023438 74.917969 51.445312 C 74.898438 51.230469 74.867188 51.015625 74.867188 50.796875 C 74.867188 50.71875 74.894531 50.554688 74.898438 50.472656 C 74.898438 50.421875 74.890625 50.386719 74.882812 50.367188 C 74.84375 50.277344 74.777344 50.257812 74.710938 50.269531 C 74.6875 50.273438 74.628906 50.285156 74.585938 50.359375 C 74.285156 50.839844 74.144531 51.839844 74.144531 52.398438 C 74.144531 52.488281 74.199219 52.730469 74.222656 52.933594 C 74.222656 52.941406 74.222656 52.953125 74.222656 52.960938 C 73.976562 52.828125 73.671875 52.679688 73.53125 52.441406 C 73.507812 52.402344 73.488281 52.316406 73.46875 52.261719 C 73.449219 52.210938 73.429688 52.175781 73.414062 52.15625 C 73.371094 52.105469 73.320312 52.09375 73.285156 52.097656 C 73.242188 52.097656 73.164062 52.109375 73.132812 52.222656 C 73.089844 52.378906 73.042969 52.738281 72.949219 53.023438 C 72.929688 53.078125 72.914062 53.125 72.894531 53.167969 C 72.886719 53.144531 72.882812 53.121094 72.875 53.101562 C 72.78125 52.867188 72.691406 52.625 72.632812 52.378906 C 72.230469 50.664062 73.273438 48.808594 74.652344 47.851562 C 74.8125 47.738281 74.984375 47.652344 75.15625 47.558594 C 75.21875 47.523438 75.378906 47.476562 75.449219 47.441406 C 75.5 47.417969 75.53125 47.390625 75.546875 47.371094 C 75.59375 47.308594 75.589844 47.25 75.5625 47.195312 C 75.546875 47.167969 75.515625 47.121094 75.433594 47.105469 C 75.421875 47.101562 75.367188 47.101562 75.292969 47.121094 C 77.175781 45.902344 79.996094 45.339844 82.160156 45.964844 C 82.929688 46.1875 83.601562 46.863281 84.097656 47.46875 C 84.113281 47.488281 84.136719 47.503906 84.160156 47.515625 C 85.710938 48.101562 87.238281 48.601562 87.898438 50.335938 C 88.089844 50.839844 88.164062 51.378906 88.359375 51.878906 C 88.382812 51.929688 88.402344 51.980469 88.429688 52.03125 C 88.378906 52.015625 88.335938 52.03125 88.308594 52.046875 C 88.285156 52.058594 88.195312 52.117188 88.242188 52.25 C 88.289062 52.375 88.351562 52.496094 88.421875 52.609375 C 88.503906 52.746094 88.609375 52.871094 88.722656 52.984375 C 88.84375 53.203125 88.957031 53.425781 89.015625 53.664062 C 89.132812 54.15625 89.050781 54.644531 88.894531 55.125 C 88.734375 55.625 88.496094 56.113281 88.304688 56.574219 C 88.070312 57.140625 87.804688 57.800781 87.425781 58.324219 L 87.425781 58.320312 C 87.4375 58.257812 87.445312 58.207031 87.441406 58.183594 C 87.4375 58.144531 87.425781 58.117188 87.414062 58.101562 C 87.390625 58.0625 87.355469 58.042969 87.320312 58.035156 C 87.292969 58.027344 87.207031 58.011719 87.136719 58.117188 C 86.742188 58.675781 85.917969 59.453125 85.285156 60.1875 C 84.84375 60.707031 84.496094 61.207031 84.429688 61.605469 C 84.417969 61.691406 84.472656 61.769531 84.558594 61.785156 C 84.640625 61.796875 84.722656 61.742188 84.734375 61.65625 C 84.792969 61.296875 85.121094 60.855469 85.519531 60.386719 C 85.996094 59.832031 86.582031 59.253906 87.015625 58.757812 L 87.011719 58.765625 C 87.011719 58.828125 87.023438 58.875 87.039062 58.898438 C 87.074219 58.957031 87.121094 58.980469 87.183594 58.980469 C 87.210938 58.980469 87.261719 58.972656 87.3125 58.921875 C 87.910156 58.34375 88.277344 57.445312 88.589844 56.691406 C 88.785156 56.222656 89.027344 55.726562 89.191406 55.21875 C 89.359375 54.683594 89.445312 54.136719 89.3125 53.59375 C 89.292969 53.507812 89.265625 53.425781 89.238281 53.347656 C 89.277344 53.339844 89.304688 53.316406 89.328125 53.285156 C 89.34375 53.265625 89.371094 53.21875 89.351562 53.144531 C 89.292969 52.90625 89.15625 52.660156 89.007812 52.417969 C 88.875 52.199219 88.730469 51.980469 88.648438 51.765625 C 88.449219 51.265625 88.378906 50.730469 88.1875 50.226562 C 87.5 48.414062 85.925781 47.851562 84.308594 47.242188 C 83.78125 46.597656 83.058594 45.90625 82.246094 45.671875 C 79.941406 45.003906 76.910156 45.632812 74.960938 46.972656 C 74.925781 46.996094 74.597656 47.171875 74.46875 47.273438 C 74.417969 47.3125 74.386719 47.351562 74.375 47.375 C 74.359375 47.402344 74.355469 47.429688 74.355469 47.453125 C 74.355469 47.503906 74.378906 47.578125 74.464844 47.605469 Z M 82.875 58.652344 C 82.835938 58.605469 82.792969 58.558594 82.746094 58.519531 C 82.667969 58.453125 82.550781 58.433594 82.417969 58.441406 C 82.191406 58.453125 81.9375 58.550781 81.777344 58.6875 C 81.707031 58.746094 81.65625 58.8125 81.648438 58.886719 C 81.644531 58.953125 81.683594 59.019531 81.765625 59.089844 C 81.785156 59.109375 81.8125 59.109375 81.847656 59.109375 C 81.910156 59.113281 81.988281 59.097656 82.074219 59.070312 C 82.296875 59 82.578125 58.851562 82.875 58.652344 Z M 82.875 58.652344 " fill-opacity="1" fill-rule="evenodd"/><path fill="#4f3431" d="M 73.082031 52.730469 C 72.984375 53.449219 72.925781 55.035156 72.847656 55.753906 C 72.722656 56.863281 72.609375 59.21875 72.949219 60.34375 C 72.972656 60.425781 73.058594 60.46875 73.140625 60.445312 C 73.222656 60.421875 73.269531 60.335938 73.242188 60.253906 C 72.914062 59.160156 73.035156 56.867188 73.152344 55.785156 C 73.230469 55.070312 73.292969 53.488281 73.386719 52.773438 C 73.398438 52.6875 73.339844 52.609375 73.253906 52.597656 C 73.171875 52.585938 73.09375 52.648438 73.082031 52.730469 Z M 73.082031 52.730469 " fill-opacity="1" fill-rule="evenodd"/><path fill="#4f3431" d="M 75.984375 61.730469 C 77.984375 61.910156 79.375 61.773438 80.5625 59.960938 C 80.609375 59.890625 80.589844 59.792969 80.519531 59.746094 C 80.445312 59.699219 80.351562 59.71875 80.304688 59.792969 C 79.195312 61.488281 77.882812 61.59375 76.011719 61.421875 C 75.929688 61.414062 75.851562 61.476562 75.84375 61.5625 C 75.835938 61.648438 75.898438 61.722656 75.984375 61.730469 Z M 75.984375 61.730469 " fill-opacity="1" fill-rule="evenodd"/><path fill="#4f3431" d="M 81.355469 68.664062 C 81.179688 68.234375 80.875 67.945312 80.535156 67.683594 C 80.203125 67.433594 79.835938 67.210938 79.542969 66.902344 C 79.367188 66.71875 79.261719 66.492188 79.140625 66.28125 C 78.996094 66.039062 78.828125 65.816406 78.539062 65.667969 C 77.992188 65.386719 77.421875 65.34375 76.886719 65.234375 C 76.394531 65.132812 75.933594 64.972656 75.554688 64.460938 C 75.511719 64.398438 75.429688 64.378906 75.363281 64.414062 C 75.296875 64.445312 75.265625 64.523438 75.285156 64.59375 C 75.460938 65.21875 75.351562 65.8125 75.164062 66.398438 C 74.964844 67.011719 74.675781 67.617188 74.5 68.234375 C 74.339844 68.808594 74.484375 69.332031 74.648438 69.851562 C 74.792969 70.320312 74.953125 70.777344 74.839844 71.269531 C 74.734375 71.75 74.433594 72.1875 74.078125 72.617188 C 73.703125 73.066406 73.265625 73.503906 72.894531 73.960938 C 72.148438 74.878906 71.660156 75.871094 72.367188 77.148438 C 72.171875 76.921875 72.011719 76.648438 71.902344 76.292969 C 71.621094 75.375 71.933594 74.761719 72.351562 74.160156 C 72.652344 73.726562 73.003906 73.300781 73.253906 72.789062 C 73.425781 72.445312 73.371094 72.101562 73.277344 71.753906 C 73.199219 71.46875 73.09375 71.179688 73.144531 70.886719 C 73.210938 70.503906 73.40625 70.152344 73.609375 69.800781 C 73.828125 69.425781 74.058594 69.050781 74.175781 68.648438 C 74.570312 67.3125 74.472656 65.882812 74.589844 64.511719 C 74.597656 64.425781 74.535156 64.351562 74.453125 64.34375 C 74.367188 64.335938 74.292969 64.398438 74.285156 64.484375 C 74.167969 65.835938 74.265625 67.242188 73.882812 68.558594 C 73.769531 68.941406 73.550781 69.292969 73.34375 69.648438 C 73.121094 70.027344 72.914062 70.414062 72.839844 70.832031 C 72.78125 71.167969 72.890625 71.503906 72.980469 71.835938 C 73.050781 72.109375 73.113281 72.378906 72.980469 72.652344 C 72.671875 73.28125 72.207031 73.773438 71.882812 74.3125 C 71.539062 74.890625 71.339844 75.515625 71.605469 76.382812 C 71.828125 77.113281 72.242188 77.535156 72.734375 77.890625 C 73.195312 78.222656 73.730469 78.492188 74.226562 78.925781 C 74.289062 78.980469 74.378906 78.976562 74.4375 78.921875 C 74.492188 78.863281 74.5 78.773438 74.445312 78.710938 C 74.21875 78.4375 73.875 78.191406 73.539062 77.9375 C 73.226562 77.703125 72.921875 77.464844 72.746094 77.183594 C 71.964844 75.953125 72.429688 75.019531 73.132812 74.15625 C 73.503906 73.699219 73.941406 73.261719 74.316406 72.8125 C 74.703125 72.34375 75.023438 71.859375 75.140625 71.335938 C 75.265625 70.789062 75.101562 70.277344 74.941406 69.761719 C 74.796875 69.296875 74.652344 68.828125 74.796875 68.316406 C 74.972656 67.707031 75.257812 67.105469 75.457031 66.492188 C 75.609375 66.015625 75.710938 65.53125 75.671875 65.035156 C 76.023438 65.324219 76.414062 65.449219 76.824219 65.535156 C 77.335938 65.640625 77.878906 65.675781 78.398438 65.941406 C 78.628906 66.0625 78.757812 66.246094 78.875 66.441406 C 79.007812 66.667969 79.128906 66.910156 79.320312 67.117188 C 79.625 67.4375 80.003906 67.667969 80.347656 67.929688 C 80.820312 68.289062 81.222656 68.714844 81.199219 69.59375 C 81.195312 69.671875 81.25 69.738281 81.328125 69.75 C 81.402344 69.765625 81.476562 69.71875 81.5 69.648438 C 81.503906 69.636719 81.507812 69.605469 81.511719 69.5625 C 81.519531 69.460938 81.523438 69.242188 81.53125 69.171875 C 81.953125 67.851562 81.746094 67.359375 81.316406 66.835938 C 81.046875 66.511719 80.675781 66.175781 80.308594 65.59375 C 80.1875 65.398438 80.085938 65.117188 79.945312 64.878906 C 79.839844 64.695312 79.707031 64.539062 79.535156 64.449219 C 79.339844 64.347656 79.117188 64.308594 78.890625 64.285156 C 78.691406 64.265625 78.488281 64.257812 78.300781 64.214844 C 77.953125 64.132812 77.65625 63.925781 77.316406 63.828125 C 76.679688 63.640625 76.003906 63.589844 75.363281 63.410156 C 75.28125 63.386719 75.195312 63.433594 75.171875 63.515625 C 75.148438 63.597656 75.199219 63.683594 75.28125 63.707031 C 75.917969 63.886719 76.59375 63.9375 77.230469 64.121094 C 77.578125 64.222656 77.878906 64.433594 78.230469 64.515625 C 78.433594 64.5625 78.648438 64.570312 78.859375 64.59375 C 79.046875 64.613281 79.230469 64.640625 79.394531 64.726562 C 79.550781 64.804688 79.652344 64.972656 79.742188 65.152344 C 79.851562 65.363281 79.941406 65.589844 80.050781 65.757812 C 80.332031 66.210938 80.617188 66.519531 80.859375 66.785156 C 81.117188 67.070312 81.324219 67.300781 81.410156 67.628906 C 81.476562 67.890625 81.46875 68.210938 81.355469 68.664062 Z M 81.355469 68.664062 " fill-opacity="1" fill-rule="evenodd"/><path fill="#4f3431" d="M 73.476562 62.988281 C 72.863281 62.566406 72.273438 62.253906 71.503906 62.277344 C 71.417969 62.28125 71.351562 62.351562 71.355469 62.4375 C 71.359375 62.523438 71.429688 62.589844 71.515625 62.585938 C 72.210938 62.5625 72.746094 62.859375 73.300781 63.242188 C 73.371094 63.289062 73.46875 63.273438 73.515625 63.203125 C 73.5625 63.132812 73.546875 63.035156 73.476562 62.988281 Z M 73.476562 62.988281 " fill-opacity="1" fill-rule="evenodd"/><path fill="#4f3431" d="M 69.007812 77.605469 C 69.425781 77.933594 69.796875 78.148438 70.371094 78.324219 C 70.453125 78.347656 70.539062 78.300781 70.566406 78.21875 C 70.589844 78.140625 70.542969 78.054688 70.460938 78.027344 C 69.800781 77.828125 69.429688 77.566406 68.914062 77.128906 C 68.867188 77.089844 68.878906 77.101562 68.824219 77.050781 C 68.738281 76.972656 68.667969 76.960938 68.640625 76.960938 C 68.589844 76.964844 68.550781 76.984375 68.523438 77.019531 C 68.5 77.042969 68.480469 77.082031 68.480469 77.140625 C 68.484375 77.175781 68.507812 77.257812 68.550781 77.359375 C 68.617188 77.503906 68.734375 77.722656 68.800781 77.890625 C 67.964844 77.308594 68.015625 76.96875 67.539062 76.160156 C 67.429688 75.976562 67.28125 75.828125 67.136719 75.675781 C 67.011719 75.550781 66.894531 75.417969 66.824219 75.246094 C 66.53125 74.484375 66.867188 73.84375 67.222656 73.210938 C 67.625 72.503906 68.054688 71.800781 67.894531 71 C 67.804688 70.542969 67.542969 70.179688 67.246094 69.832031 C 66.976562 69.511719 66.675781 69.210938 66.484375 68.847656 C 65.8125 67.566406 65.878906 66.503906 66.335938 65.175781 C 67.089844 62.996094 67.320312 62.820312 69.21875 61.585938 C 69.25 61.566406 69.273438 61.535156 69.28125 61.5 C 69.320312 61.371094 69.464844 61.25 69.648438 61.128906 C 70.148438 60.796875 70.957031 60.515625 71.3125 60.449219 C 72.574219 60.207031 73.453125 60.601562 74.761719 61.195312 C 75.84375 61.6875 77.664062 62.542969 78.894531 63.558594 C 79.671875 64.199219 80.21875 64.898438 80.128906 65.617188 C 80.121094 65.660156 80.136719 65.707031 80.164062 65.738281 C 80.195312 65.773438 80.234375 65.792969 80.28125 65.792969 L 80.292969 65.792969 C 80.34375 65.792969 80.394531 65.765625 80.421875 65.71875 C 81.488281 64.027344 82.96875 62.695312 84.773438 61.824219 C 84.785156 61.816406 84.871094 61.769531 84.957031 61.71875 C 85.042969 62.175781 85.488281 62.898438 85.824219 63.488281 C 85.953125 63.714844 86.0625 63.917969 86.125 64.074219 C 86.15625 64.152344 86.179688 64.214844 86.171875 64.257812 C 86.152344 64.417969 86.015625 64.539062 85.914062 64.65625 C 85.890625 64.683594 85.832031 64.714844 85.796875 64.746094 C 85.746094 64.785156 85.71875 64.828125 85.710938 64.863281 C 85.703125 64.898438 85.703125 64.933594 85.714844 64.964844 C 85.722656 65 85.746094 65.035156 85.800781 65.066406 C 85.824219 65.078125 85.855469 65.089844 85.898438 65.085938 C 85.933594 65.085938 85.996094 65.0625 86.074219 65.023438 C 86.148438 64.992188 86.242188 64.941406 86.339844 64.910156 C 86.402344 64.890625 86.46875 64.875 86.519531 64.898438 C 86.953125 65.117188 87.21875 65.496094 87.445312 65.898438 C 87.691406 66.335938 87.894531 66.808594 88.191406 67.183594 C 88.414062 67.464844 88.730469 67.539062 89.054688 67.597656 C 89.308594 67.640625 89.566406 67.664062 89.738281 67.851562 C 89.882812 68.007812 89.921875 68.210938 89.964844 68.414062 C 90.011719 68.667969 90.058594 68.921875 90.203125 69.140625 C 90.449219 69.507812 90.8125 69.789062 91.058594 70.15625 C 91.378906 70.632812 92.363281 72.398438 92.933594 73.648438 C 93.167969 74.164062 93.335938 74.585938 93.347656 74.78125 C 93.359375 75.058594 93.277344 75.339844 93.183594 75.617188 C 93.078125 75.921875 92.960938 76.226562 92.902344 76.523438 C 92.851562 76.792969 92.851562 77.089844 92.828125 77.375 C 92.808594 77.628906 92.765625 77.875 92.621094 78.089844 C 92.230469 78.660156 91.582031 79.058594 91.09375 79.539062 C 91.007812 79.621094 90.921875 79.707031 90.84375 79.796875 C 90.785156 78.96875 90.554688 78.054688 90.34375 77.710938 C 90.140625 77.382812 89.835938 77.136719 89.515625 76.90625 C 88.964844 75.863281 88.292969 74.867188 87.675781 73.890625 C 87.53125 73.660156 87.046875 72.800781 86.582031 72.398438 C 86.332031 72.179688 86.074219 72.097656 85.867188 72.203125 C 85.761719 72.253906 85.703125 72.328125 85.671875 72.414062 C 85.628906 72.519531 85.644531 72.652344 85.699219 72.792969 C 85.808594 73.054688 86.078125 73.347656 86.175781 73.457031 C 87.007812 74.378906 87.5625 75.472656 88.382812 76.390625 C 88.632812 76.667969 88.960938 76.886719 89.277344 77.113281 C 89.550781 77.636719 89.789062 78.171875 89.972656 78.71875 C 90.144531 79.234375 90.191406 79.722656 90.082031 80.253906 C 90.046875 80.421875 90.003906 80.59375 89.941406 80.753906 C 89.917969 80.808594 89.859375 80.925781 89.832031 80.988281 C 89.820312 81.023438 89.8125 81.050781 89.8125 81.066406 C 89.8125 81.074219 89.8125 81.082031 89.8125 81.085938 C 89.101562 81.902344 88.277344 82.570312 87.566406 83.378906 C 86.398438 84.710938 85.625 86.394531 84.574219 87.820312 C 84.074219 88.5 83.414062 89.039062 82.867188 89.675781 C 82.445312 90.164062 82.183594 90.898438 81.917969 91.492188 C 81.757812 91.84375 81.601562 92.148438 81.386719 92.285156 C 80.988281 92.539062 80.175781 92.753906 79.25 92.953125 C 77.824219 93.261719 76.136719 93.535156 75.242188 93.84375 C 74.847656 93.980469 74.351562 94.398438 73.925781 94.710938 C 73.769531 94.824219 73.625 94.925781 73.5 94.984375 C 73.4375 95.015625 73.382812 95.039062 73.332031 95.039062 C 72.816406 95.03125 72.019531 94.707031 71.328125 94.515625 C 71.03125 94.433594 70.753906 94.378906 70.519531 94.375 C 70.34375 94.371094 70.1875 94.398438 70.066406 94.457031 C 69.78125 94.597656 69.65625 94.757812 69.625 94.90625 C 69.609375 94.96875 69.613281 95.035156 69.628906 95.101562 C 69.4375 95.109375 69.238281 95.140625 69.039062 95.179688 C 68.035156 95.386719 66.953125 95.445312 65.976562 95.746094 C 65.386719 95.925781 64.753906 96.328125 64.179688 96.605469 C 64.148438 96.53125 64.101562 96.417969 64.0625 96.300781 C 63.703125 95.269531 63.007812 92.773438 62.5625 91.675781 C 62.457031 91.414062 62.359375 91.226562 62.285156 91.144531 C 62.207031 91.050781 62.121094 91.039062 62.058594 91.054688 C 62.007812 91.066406 61.960938 91.09375 61.921875 91.144531 C 61.878906 91.203125 61.84375 91.308594 61.824219 91.449219 C 61.746094 92.078125 61.953125 93.578125 62.042969 93.851562 C 62.308594 94.664062 62.90625 95.699219 63.503906 96.316406 C 63.511719 96.324219 63.546875 96.355469 63.570312 96.378906 C 63.519531 96.660156 63.46875 97.164062 63.332031 97.554688 C 63.289062 97.683594 63.238281 97.796875 63.167969 97.886719 C 63.113281 97.957031 63.050781 98.011719 62.972656 98.03125 C 62.960938 98.035156 62.945312 98.027344 62.921875 98.023438 C 62.878906 98.011719 62.828125 97.996094 62.773438 97.972656 C 62.480469 97.859375 62.085938 97.625 61.949219 97.5625 C 61.632812 97.421875 61.230469 97.320312 60.851562 97.1875 C 60.5 97.070312 60.164062 96.925781 59.949219 96.675781 C 59.882812 96.597656 59.792969 96.339844 59.691406 95.988281 C 59.429688 95.09375 59.117188 93.613281 58.980469 92.550781 C 58.933594 92.171875 58.90625 91.84375 58.917969 91.621094 C 58.921875 91.558594 58.925781 91.503906 58.9375 91.460938 C 58.941406 91.449219 58.945312 91.429688 58.949219 91.425781 C 59.152344 91.242188 61.109375 90.03125 61.371094 89.929688 C 61.472656 89.890625 61.578125 89.910156 61.679688 89.929688 C 61.828125 89.964844 61.976562 90.003906 62.125 89.992188 C 62.414062 89.96875 62.667969 89.859375 62.925781 89.78125 C 63.132812 89.71875 63.347656 89.675781 63.597656 89.75 C 63.316406 90.417969 63.027344 91.226562 62.925781 91.550781 C 62.914062 91.582031 62.914062 91.597656 62.914062 91.601562 C 62.910156 91.660156 62.9375 91.695312 62.949219 91.707031 C 62.972656 91.734375 63 91.75 63.03125 91.757812 C 63.039062 91.761719 63.15625 91.789062 63.210938 91.667969 C 63.214844 91.652344 63.261719 91.527344 63.28125 91.480469 C 63.347656 91.324219 63.410156 91.167969 63.488281 91.019531 C 63.574219 90.839844 63.863281 90.28125 63.921875 89.925781 C 63.929688 89.859375 63.933594 89.796875 63.925781 89.742188 C 64.074219 89.394531 64.214844 89.105469 64.3125 88.984375 C 64.4375 88.832031 64.609375 88.785156 64.785156 88.753906 C 65.007812 88.710938 65.238281 88.695312 65.445312 88.605469 C 65.871094 88.417969 66.210938 88.1875 66.542969 87.992188 C 67.007812 87.714844 67.460938 87.503906 68.171875 87.59375 C 68.328125 87.613281 68.460938 87.640625 68.566406 87.671875 C 68.171875 88.320312 67.859375 89.050781 67.585938 89.808594 C 67.539062 89.941406 67.628906 90 67.652344 90.011719 C 67.683594 90.03125 67.742188 90.050781 67.8125 90.011719 C 67.824219 90.003906 67.84375 89.988281 67.871094 89.957031 C 67.90625 89.917969 67.972656 89.828125 68.007812 89.792969 C 68.210938 89.601562 68.40625 89.382812 68.578125 89.164062 C 68.824219 88.84375 69.035156 88.558594 69.140625 88.316406 C 69.226562 88.117188 69.246094 87.9375 69.191406 87.789062 C 69.15625 87.699219 69.101562 87.621094 69.011719 87.546875 C 69.644531 86.617188 70.5 85.90625 71.75 85.625 C 71.820312 85.609375 71.886719 85.585938 71.960938 85.5625 C 71.957031 85.574219 71.957031 85.585938 71.957031 85.597656 C 71.941406 86.015625 72.050781 86.238281 72.195312 86.339844 C 72.351562 86.449219 72.570312 86.445312 72.820312 86.363281 C 72.988281 86.308594 73.175781 86.214844 73.355469 86.125 C 73.40625 86.191406 73.457031 86.257812 73.507812 86.328125 C 73.78125 86.703125 74.058594 87.089844 74.453125 87.332031 C 74.867188 87.585938 75.390625 87.925781 75.925781 88.109375 C 76.304688 88.242188 76.691406 88.292969 77.054688 88.191406 C 77.292969 88.125 77.535156 88.027344 77.78125 88.019531 C 77.921875 88.113281 78.042969 88.164062 78.136719 88.175781 C 78.214844 88.183594 78.308594 88.164062 78.371094 88.105469 C 78.402344 88.074219 78.414062 88.039062 78.417969 88.003906 C 78.421875 87.972656 78.414062 87.929688 78.386719 87.890625 C 78.371094 87.875 78.34375 87.847656 78.300781 87.824219 C 78.222656 87.785156 78.0625 87.730469 78.042969 87.726562 C 77.988281 87.71875 77.933594 87.714844 77.882812 87.710938 C 77.722656 87.597656 77.535156 87.433594 77.332031 87.253906 C 76.722656 86.714844 75.988281 86.023438 75.453125 85.84375 C 74.984375 85.683594 74.425781 85.484375 73.929688 85.570312 C 73.789062 85.59375 73.621094 85.660156 73.445312 85.746094 C 73.253906 85.523438 73.046875 85.332031 72.789062 85.210938 C 72.664062 85.152344 72.539062 85.132812 72.414062 85.140625 C 72.449219 85.078125 72.488281 85.015625 72.535156 84.949219 C 72.796875 84.59375 73.214844 84.238281 73.691406 83.878906 C 74.429688 83.320312 75.304688 82.753906 75.992188 82.148438 C 76.46875 81.734375 76.851562 81.296875 77.050781 80.839844 C 77.222656 80.441406 77.289062 80.003906 77.511719 79.628906 C 77.902344 78.972656 78.453125 78.394531 78.773438 77.699219 C 78.792969 77.652344 78.8125 77.605469 78.832031 77.554688 C 79.960938 76.324219 81.398438 74.707031 81.765625 74.152344 C 81.867188 73.996094 82.144531 73.460938 82.328125 72.914062 C 82.457031 72.535156 82.539062 72.148438 82.507812 71.867188 C 82.484375 71.679688 82.410156 71.53125 82.285156 71.441406 C 82.167969 71.355469 81.992188 71.316406 81.742188 71.367188 C 81.710938 71.375 81.675781 71.390625 81.640625 71.402344 C 81.277344 71.542969 81.089844 71.847656 80.980469 72.21875 C 80.902344 72.46875 80.863281 72.746094 80.816406 73.007812 C 80.773438 73.25 80.726562 73.476562 80.632812 73.65625 C 80.234375 74.386719 79.535156 74.933594 79.121094 75.660156 C 78.941406 75.96875 78.851562 76.304688 78.769531 76.644531 C 78.710938 76.894531 78.65625 77.148438 78.566406 77.394531 C 78.140625 77.855469 77.765625 78.261719 77.511719 78.53125 C 77.601562 77.8125 77.648438 77.050781 77.980469 76.457031 C 78.296875 75.886719 78.460938 75.289062 78.644531 74.667969 C 79.082031 73.191406 79.867188 71.378906 80.902344 70.222656 C 81.097656 70 81.363281 69.847656 81.621094 69.6875 C 81.910156 69.503906 82.1875 69.308594 82.371094 69.027344 C 82.523438 68.789062 82.515625 68.582031 82.496094 68.375 C 82.484375 68.265625 82.46875 68.152344 82.507812 68.03125 C 82.542969 67.914062 82.632812 67.789062 82.8125 67.644531 C 83.628906 66.984375 84.9375 66.695312 85.921875 66.355469 C 86.003906 66.328125 86.046875 66.238281 86.019531 66.160156 C 85.992188 66.078125 85.902344 66.035156 85.824219 66.0625 C 84.808594 66.414062 83.460938 66.722656 82.617188 67.402344 C 82.199219 67.738281 82.164062 68.011719 82.175781 68.265625 C 82.1875 68.457031 82.25 68.640625 82.109375 68.859375 C 81.953125 69.101562 81.707031 69.265625 81.457031 69.425781 C 81.171875 69.605469 80.882812 69.777344 80.671875 70.015625 C 79.609375 71.207031 78.796875 73.0625 78.347656 74.578125 C 78.171875 75.179688 78.015625 75.757812 77.710938 76.308594 C 77.289062 77.0625 77.296875 78.082031 77.136719 78.953125 C 77.121094 79.042969 77.167969 79.089844 77.210938 79.113281 C 77.234375 79.128906 77.289062 79.15625 77.363281 79.117188 C 77.371094 79.113281 77.421875 79.070312 77.503906 78.984375 C 77.566406 78.917969 77.660156 78.820312 77.773438 78.699219 C 77.589844 78.953125 77.40625 79.207031 77.246094 79.472656 C 77.019531 79.859375 76.945312 80.308594 76.765625 80.71875 C 76.585938 81.136719 76.226562 81.535156 75.789062 81.917969 C 75.109375 82.515625 74.238281 83.078125 73.507812 83.632812 C 73.003906 84.011719 72.5625 84.390625 72.285156 84.769531 C 72.179688 84.917969 72.09375 85.066406 72.035156 85.214844 C 71.917969 85.253906 71.796875 85.296875 71.683594 85.324219 C 70.335938 85.625 69.417969 86.398438 68.738281 87.40625 C 68.601562 87.355469 68.429688 87.316406 68.210938 87.289062 C 67.414062 87.1875 66.90625 87.417969 66.382812 87.726562 C 66.0625 87.917969 65.734375 88.140625 65.320312 88.320312 C 65.136719 88.402344 64.925781 88.414062 64.726562 88.449219 C 64.480469 88.496094 64.25 88.574219 64.074219 88.789062 C 63.984375 88.902344 63.855469 89.152344 63.71875 89.464844 C 63.386719 89.355469 63.109375 89.402344 62.835938 89.484375 C 62.597656 89.558594 62.367188 89.664062 62.101562 89.683594 C 61.980469 89.695312 61.863281 89.65625 61.746094 89.628906 C 61.582031 89.59375 61.421875 89.578125 61.257812 89.640625 C 60.984375 89.75 58.90625 91.035156 58.730469 91.207031 C 58.691406 91.242188 58.65625 91.304688 58.636719 91.390625 C 58.605469 91.515625 58.601562 91.722656 58.617188 91.988281 C 58.675781 92.972656 59.035156 94.785156 59.347656 95.898438 C 59.484375 96.40625 59.625 96.773438 59.714844 96.875 C 59.964844 97.164062 60.34375 97.34375 60.75 97.480469 C 61.121094 97.609375 61.515625 97.703125 61.820312 97.84375 C 61.960938 97.910156 62.363281 98.144531 62.660156 98.261719 C 62.824219 98.328125 62.96875 98.351562 63.046875 98.332031 C 63.316406 98.261719 63.503906 98 63.625 97.65625 C 63.742188 97.320312 63.796875 96.902344 63.84375 96.605469 C 63.878906 96.695312 63.910156 96.765625 63.933594 96.8125 C 63.964844 96.875 63.996094 96.910156 64.015625 96.925781 C 64.0625 96.964844 64.125 96.972656 64.175781 96.949219 C 64.773438 96.675781 65.445312 96.230469 66.066406 96.039062 C 67.035156 95.742188 68.109375 95.6875 69.101562 95.484375 C 69.351562 95.429688 69.59375 95.402344 69.832031 95.410156 C 70.179688 95.742188 70.941406 96.023438 71.230469 96.125 C 71.308594 96.152344 71.355469 96.125 71.378906 96.109375 C 71.429688 96.082031 71.460938 96.03125 71.449219 95.953125 C 71.449219 95.933594 71.4375 95.902344 71.414062 95.867188 C 71.386719 95.828125 71.324219 95.761719 71.296875 95.726562 C 71.15625 95.546875 70.945312 95.425781 70.742188 95.328125 C 70.484375 95.203125 70.230469 95.136719 69.972656 95.109375 C 69.9375 95.066406 69.914062 95.019531 69.925781 94.972656 C 69.941406 94.886719 70.035156 94.816406 70.203125 94.734375 C 70.285156 94.691406 70.394531 94.679688 70.515625 94.679688 C 70.726562 94.683594 70.980469 94.738281 71.246094 94.8125 C 71.964844 95.011719 72.792969 95.339844 73.332031 95.347656 C 73.417969 95.347656 73.519531 95.320312 73.632812 95.265625 C 73.773438 95.195312 73.9375 95.085938 74.109375 94.957031 C 74.511719 94.664062 74.972656 94.265625 75.34375 94.136719 C 76.230469 93.828125 77.902344 93.5625 79.316406 93.253906 C 80.285156 93.042969 81.136719 92.8125 81.550781 92.546875 C 81.804688 92.382812 82.007812 92.035156 82.199219 91.617188 C 82.457031 91.050781 82.699219 90.34375 83.101562 89.875 C 83.652344 89.234375 84.316406 88.6875 84.824219 88 C 85.867188 86.582031 86.636719 84.90625 87.800781 83.582031 C 88.535156 82.746094 89.390625 82.058594 90.121094 81.203125 C 90.125 81.195312 90.132812 81.203125 90.140625 81.203125 C 90.148438 81.207031 90.160156 81.210938 90.167969 81.214844 C 90.21875 81.238281 90.265625 81.273438 90.304688 81.292969 C 90.371094 81.332031 90.429688 81.347656 90.46875 81.347656 C 90.523438 81.34375 90.566406 81.320312 90.597656 81.28125 C 90.757812 81.089844 90.84375 80.738281 90.855469 80.3125 C 90.859375 80.289062 90.859375 80.269531 90.859375 80.246094 C 91 80.078125 91.148438 79.914062 91.308594 79.757812 C 91.8125 79.265625 92.476562 78.851562 92.875 78.261719 C 93.050781 78.003906 93.109375 77.707031 93.136719 77.402344 C 93.160156 77.125 93.15625 76.84375 93.207031 76.578125 C 93.261719 76.296875 93.375 76.007812 93.476562 75.71875 C 93.582031 75.402344 93.667969 75.082031 93.65625 74.765625 C 93.644531 74.550781 93.472656 74.085938 93.214844 73.519531 C 92.636719 72.253906 91.640625 70.464844 91.316406 69.984375 C 91.066406 69.617188 90.707031 69.335938 90.460938 68.96875 C 90.339844 68.785156 90.308594 68.566406 90.265625 68.355469 C 90.214844 68.09375 90.148438 67.84375 89.964844 67.644531 C 89.746094 67.402344 89.429688 67.347656 89.109375 67.292969 C 88.859375 67.25 88.605469 67.210938 88.433594 66.992188 C 88.148438 66.628906 87.953125 66.171875 87.714844 65.746094 C 87.457031 65.289062 87.148438 64.871094 86.65625 64.625 C 86.570312 64.582031 86.46875 64.574219 86.359375 64.589844 C 86.417969 64.5 86.464844 64.40625 86.480469 64.300781 C 86.488281 64.238281 86.476562 64.152344 86.445312 64.050781 C 86.40625 63.929688 86.335938 63.785156 86.246094 63.617188 C 85.929688 63.019531 85.351562 62.164062 85.257812 61.660156 C 85.253906 61.636719 85.25 61.523438 85.238281 61.46875 C 85.226562 61.414062 85.195312 61.375 85.175781 61.359375 C 85.160156 61.347656 85.097656 61.304688 85.007812 61.339844 C 84.945312 61.367188 84.667969 61.53125 84.640625 61.546875 C 82.921875 62.375 81.488281 63.609375 80.417969 65.167969 C 80.292969 64.527344 79.785156 63.894531 79.089844 63.320312 C 77.839844 62.289062 75.992188 61.414062 74.886719 60.914062 C 73.511719 60.289062 72.582031 59.890625 71.253906 60.144531 C 70.875 60.21875 70.011719 60.515625 69.476562 60.871094 C 69.246094 61.023438 69.078125 61.195312 69.007812 61.355469 C 67.066406 62.617188 66.824219 62.816406 66.046875 65.074219 C 65.554688 66.492188 65.492188 67.625 66.210938 68.988281 C 66.414062 69.371094 66.726562 69.695312 67.011719 70.03125 C 67.273438 70.339844 67.511719 70.65625 67.59375 71.058594 C 67.738281 71.789062 67.320312 72.417969 66.957031 73.058594 C 66.550781 73.773438 66.207031 74.5 66.539062 75.359375 C 66.621094 75.570312 66.761719 75.734375 66.914062 75.890625 C 67.042969 76.023438 67.179688 76.152344 67.273438 76.316406 C 67.785156 77.183594 67.738281 77.53125 68.652344 78.167969 C 68.738281 78.226562 68.804688 78.257812 68.851562 78.277344 C 68.914062 78.296875 68.964844 78.296875 69 78.289062 C 69.101562 78.261719 69.183594 78.164062 69.148438 77.984375 C 69.128906 77.886719 69.074219 77.75 69.007812 77.605469 Z M 62.132812 91.472656 C 62.125 91.546875 62.117188 91.636719 62.117188 91.738281 C 62.105469 92.414062 62.261719 93.527344 62.335938 93.753906 C 62.578125 94.488281 63.101562 95.414062 63.640625 96.007812 C 63.261719 94.835938 62.671875 92.761719 62.277344 91.792969 C 62.226562 91.664062 62.175781 91.554688 62.132812 91.472656 Z M 68.84375 87.808594 C 68.578125 88.238281 68.351562 88.707031 68.152344 89.191406 C 68.214844 89.121094 68.277344 89.046875 68.332031 88.972656 C 68.5625 88.679688 68.757812 88.417969 68.855469 88.191406 C 68.90625 88.078125 68.929688 87.980469 68.902344 87.894531 C 68.890625 87.863281 68.871094 87.835938 68.84375 87.808594 Z M 77.449219 87.761719 C 77.34375 87.675781 77.238281 87.582031 77.125 87.484375 C 76.550781 86.972656 75.859375 86.304688 75.351562 86.132812 C 74.929688 85.992188 74.429688 85.796875 73.980469 85.875 C 73.878906 85.890625 73.765625 85.933594 73.640625 85.988281 C 73.679688 86.039062 73.71875 86.09375 73.757812 86.144531 C 74.007812 86.488281 74.253906 86.847656 74.613281 87.066406 C 75.011719 87.3125 75.511719 87.640625 76.027344 87.820312 C 76.34375 87.929688 76.667969 87.976562 76.972656 87.894531 C 77.128906 87.851562 77.285156 87.800781 77.449219 87.761719 Z M 73.160156 85.882812 C 73.011719 85.71875 72.851562 85.578125 72.65625 85.488281 C 72.535156 85.429688 72.410156 85.441406 72.285156 85.46875 C 72.273438 85.515625 72.265625 85.5625 72.265625 85.609375 C 72.257812 85.773438 72.269531 85.898438 72.304688 85.984375 C 72.324219 86.042969 72.355469 86.082031 72.394531 86.101562 C 72.457031 86.128906 72.535156 86.121094 72.617188 86.101562 C 72.785156 86.0625 72.972656 85.972656 73.160156 85.882812 Z M 90.515625 80.667969 C 90.445312 80.757812 90.371094 80.847656 90.296875 80.9375 C 90.339844 80.957031 90.382812 80.980469 90.417969 81 C 90.453125 80.933594 90.476562 80.851562 90.5 80.761719 C 90.503906 80.730469 90.511719 80.699219 90.515625 80.667969 Z M 89.847656 77.582031 C 90.007812 77.921875 90.148438 78.269531 90.265625 78.621094 C 90.457031 79.1875 90.503906 79.730469 90.382812 80.316406 L 90.378906 80.347656 C 90.433594 80.277344 90.492188 80.207031 90.550781 80.136719 C 90.550781 80.0625 90.546875 79.992188 90.542969 79.917969 C 90.5 79.121094 90.289062 78.207031 90.082031 77.871094 C 90.015625 77.765625 89.9375 77.671875 89.847656 77.582031 Z M 79.03125 76.882812 C 80.058594 75.75 81.191406 74.464844 81.507812 73.980469 C 81.644531 73.777344 82.109375 72.839844 82.191406 72.179688 C 82.207031 72.0625 82.210938 71.953125 82.191406 71.859375 C 82.179688 71.792969 82.160156 71.738281 82.113281 71.699219 C 82.050781 71.644531 81.949219 71.640625 81.808594 71.671875 C 81.789062 71.675781 81.769531 71.683594 81.753906 71.691406 C 81.40625 71.824219 81.292969 72.171875 81.214844 72.546875 C 81.121094 72.992188 81.078125 73.476562 80.902344 73.800781 C 80.503906 74.535156 79.800781 75.085938 79.386719 75.8125 C 79.222656 76.097656 79.144531 76.40625 79.070312 76.714844 C 79.058594 76.769531 79.042969 76.824219 79.03125 76.882812 Z M 88.925781 76.476562 C 88.449219 75.644531 87.914062 74.84375 87.414062 74.054688 C 87.277344 73.835938 86.820312 73.015625 86.378906 72.632812 C 86.300781 72.5625 86.21875 72.507812 86.144531 72.480469 C 86.09375 72.460938 86.046875 72.457031 86.007812 72.476562 C 85.957031 72.5 85.949219 72.542969 85.957031 72.585938 C 85.96875 72.648438 86 72.714844 86.039062 72.78125 C 86.152344 72.976562 86.332031 73.167969 86.40625 73.25 C 87.238281 74.175781 87.789062 75.265625 88.613281 76.183594 C 88.707031 76.289062 88.8125 76.382812 88.925781 76.476562 Z M 88.925781 76.476562 " fill-opacity="1" fill-rule="evenodd"/><path fill="#4f3431" d="M 72.800781 65.875 C 73.183594 66.878906 73.238281 67.640625 73.101562 68.257812 C 72.894531 69.179688 72.253906 69.765625 71.644531 70.34375 C 70.914062 71.035156 70.234375 71.714844 70.261719 72.84375 C 70.273438 73.328125 70.523438 73.695312 70.796875 74.046875 C 71.039062 74.355469 71.308594 74.652344 71.394531 75.042969 C 71.476562 75.390625 71.457031 75.730469 71.4375 76.070312 C 71.421875 76.4375 71.402344 76.808594 71.488281 77.191406 C 71.53125 77.375 71.632812 77.539062 71.75 77.726562 C 71.984375 78.101562 72.277344 78.585938 72.050781 79.632812 C 72.035156 79.714844 72.085938 79.796875 72.167969 79.816406 C 72.253906 79.832031 72.335938 79.78125 72.351562 79.695312 C 72.605469 78.523438 72.273438 77.980469 72.011719 77.5625 C 71.914062 77.40625 71.824219 77.273438 71.789062 77.121094 C 71.710938 76.769531 71.730469 76.425781 71.746094 76.085938 C 71.765625 75.71875 71.78125 75.351562 71.699219 74.972656 C 71.597656 74.539062 71.3125 74.199219 71.039062 73.855469 C 70.804688 73.554688 70.582031 73.25 70.570312 72.835938 C 70.546875 71.808594 71.191406 71.199219 71.859375 70.566406 C 72.507812 69.949219 73.183594 69.3125 73.402344 68.324219 C 73.550781 67.664062 73.5 66.84375 73.089844 65.769531 C 73.058594 65.6875 72.972656 65.648438 72.890625 65.679688 C 72.8125 65.707031 72.773438 65.796875 72.800781 65.875 Z M 72.800781 65.875 " fill-opacity="1" fill-rule="evenodd"/><path fill="#4f3431" d="M 71.824219 64.414062 C 70.253906 65.242188 68.984375 66.945312 69.34375 68.785156 C 69.386719 69.007812 69.507812 69.230469 69.613281 69.453125 C 69.703125 69.640625 69.789062 69.824219 69.773438 70.007812 C 69.746094 70.328125 69.542969 70.589844 69.332031 70.851562 C 69.089844 71.15625 68.835938 71.460938 68.742188 71.824219 C 68.59375 72.40625 68.777344 72.894531 69.039062 73.359375 C 69.273438 73.78125 69.574219 74.1875 69.683594 74.65625 C 69.765625 75.019531 69.730469 75.34375 69.726562 75.660156 C 69.722656 76.015625 69.757812 76.367188 69.988281 76.753906 C 70.03125 76.824219 70.128906 76.851562 70.199219 76.804688 C 70.273438 76.761719 70.296875 76.667969 70.253906 76.59375 C 70.054688 76.265625 70.03125 75.964844 70.035156 75.664062 C 70.039062 75.320312 70.074219 74.976562 69.984375 74.585938 C 69.867188 74.089844 69.558594 73.65625 69.308594 73.210938 C 69.085938 72.8125 68.914062 72.398438 69.039062 71.902344 C 69.121094 71.582031 69.355469 71.316406 69.574219 71.046875 C 69.824219 70.734375 70.050781 70.414062 70.082031 70.035156 C 70.101562 69.796875 70.007812 69.558594 69.890625 69.320312 C 69.796875 69.121094 69.683594 68.921875 69.644531 68.726562 C 69.3125 67.019531 70.511719 65.453125 71.96875 64.6875 C 72.042969 64.648438 72.074219 64.554688 72.03125 64.480469 C 71.992188 64.40625 71.898438 64.375 71.824219 64.414062 Z M 71.824219 64.414062 " fill-opacity="1" fill-rule="evenodd"/><path fill="#4f3431" d="M 72.34375 74.910156 C 72.519531 75.570312 73.144531 76.121094 73.9375 76.5625 C 75.066406 77.191406 76.527344 77.605469 77.316406 77.859375 C 77.394531 77.886719 77.480469 77.84375 77.507812 77.761719 C 77.535156 77.679688 77.492188 77.59375 77.410156 77.566406 C 76.636719 77.316406 75.199219 76.910156 74.085938 76.292969 C 73.378906 75.898438 72.796875 75.421875 72.640625 74.832031 C 72.621094 74.75 72.535156 74.699219 72.453125 74.71875 C 72.371094 74.742188 72.320312 74.828125 72.34375 74.910156 Z M 72.34375 74.910156 " fill-opacity="1" fill-rule="evenodd"/><g clip-path="url(#5590fd8e54)"><path fill="#4f3431" d="M 91.472656 88.648438 C 90.949219 88.148438 89.941406 87.117188 89.15625 86.734375 C 88.664062 86.496094 88.25 86.507812 88.019531 86.890625 C 87.953125 87.003906 87.945312 87.109375 87.976562 87.207031 C 88.011719 87.320312 88.121094 87.433594 88.285156 87.519531 C 88.582031 87.675781 89.082031 87.78125 89.480469 87.863281 C 89.714844 87.910156 89.914062 87.949219 89.992188 87.988281 C 90.183594 88.082031 90.714844 88.515625 91.277344 88.882812 C 91.390625 88.992188 91.480469 89.074219 91.542969 89.125 C 91.734375 89.273438 92.046875 89.398438 92.339844 89.535156 C 92.589844 89.648438 92.828125 89.765625 92.917969 89.941406 C 92.953125 90.003906 92.957031 90.085938 92.945312 90.175781 C 92.929688 90.355469 92.855469 90.570312 92.753906 90.808594 C 92.328125 91.804688 91.386719 93.140625 91.199219 93.699219 C 91.089844 94.015625 91.183594 94.40625 91.3125 94.695312 C 91.375 94.824219 91.484375 94.96875 91.507812 95.113281 C 91.546875 95.367188 91.472656 96.058594 91.417969 96.339844 C 91.335938 96.480469 91.238281 96.769531 91.238281 97.082031 C 91.238281 97.21875 91.335938 97.339844 91.46875 97.40625 C 91.542969 97.449219 91.625 97.46875 91.679688 97.476562 C 91.726562 97.480469 91.761719 97.476562 91.789062 97.464844 C 91.878906 97.433594 91.945312 97.375 91.992188 97.296875 C 92.042969 97.21875 92.070312 97.113281 92.097656 97.027344 C 92.183594 96.765625 92.242188 96.683594 92.257812 96.636719 C 92.277344 96.558594 92.273438 96.503906 92.167969 96.394531 C 92.109375 96.335938 91.96875 96.179688 91.753906 96.179688 C 91.804688 95.824219 91.84375 95.292969 91.8125 95.066406 C 91.785156 94.894531 91.664062 94.722656 91.59375 94.566406 C 91.496094 94.34375 91.40625 94.042969 91.488281 93.796875 C 91.675781 93.246094 92.617188 91.917969 93.039062 90.929688 C 93.15625 90.660156 93.234375 90.410156 93.253906 90.207031 C 93.269531 90.046875 93.25 89.910156 93.195312 89.800781 C 93.117188 89.648438 92.960938 89.519531 92.773438 89.410156 C 92.867188 89.378906 92.945312 89.328125 93.007812 89.25 C 93.175781 89.039062 93.28125 88.738281 93.351562 88.40625 C 93.445312 87.953125 93.476562 87.445312 93.5625 87.089844 C 93.75 86.324219 94.191406 85.632812 94.335938 84.863281 C 94.484375 84.09375 94.382812 83.148438 94.167969 82.171875 C 93.851562 80.738281 93.296875 79.226562 92.984375 78.101562 C 92.960938 78.019531 92.875 77.972656 92.792969 77.992188 C 92.710938 78.015625 92.664062 78.101562 92.6875 78.183594 C 93 79.304688 93.550781 80.808594 93.867188 82.238281 C 94.070312 83.171875 94.175781 84.070312 94.035156 84.804688 C 93.890625 85.570312 93.449219 86.257812 93.265625 87.015625 C 93.175781 87.375 93.144531 87.886719 93.046875 88.34375 C 92.988281 88.621094 92.910156 88.878906 92.765625 89.054688 C 92.722656 89.113281 92.65625 89.128906 92.578125 89.128906 C 92.464844 89.128906 92.335938 89.09375 92.191406 89.035156 C 91.96875 88.945312 91.71875 88.804688 91.472656 88.648438 Z M 91.9375 96.601562 C 91.894531 96.554688 91.808594 96.453125 91.671875 96.511719 C 91.609375 96.625 91.542969 96.847656 91.542969 97.082031 C 91.542969 97.089844 91.550781 97.089844 91.554688 97.09375 C 91.566406 97.105469 91.582031 97.117188 91.597656 97.125 C 91.628906 97.144531 91.683594 97.160156 91.703125 97.167969 C 91.730469 97.148438 91.742188 97.117188 91.757812 97.082031 C 91.777344 97.035156 91.789062 96.980469 91.804688 96.933594 C 91.859375 96.765625 91.910156 96.65625 91.9375 96.601562 Z M 89.957031 87.652344 C 89.636719 87.390625 89.3125 87.152344 89.019531 87.011719 C 88.707031 86.859375 88.433594 86.804688 88.285156 87.050781 C 88.273438 87.070312 88.265625 87.089844 88.269531 87.105469 C 88.273438 87.128906 88.289062 87.148438 88.308594 87.164062 C 88.339844 87.195312 88.382812 87.222656 88.429688 87.246094 C 88.707031 87.390625 89.171875 87.484375 89.539062 87.5625 C 89.703125 87.59375 89.847656 87.625 89.957031 87.652344 Z M 89.957031 87.652344 " fill-opacity="1" fill-rule="evenodd"/></g><path fill="#4f3431" d="M 90.101562 94.332031 C 89.996094 94.65625 89.851562 95.40625 89.863281 95.566406 C 89.867188 95.640625 89.910156 95.671875 89.925781 95.683594 C 89.957031 95.707031 89.992188 95.714844 90.027344 95.714844 C 90.054688 95.714844 90.085938 95.707031 90.117188 95.679688 C 90.128906 95.671875 90.140625 95.660156 90.152344 95.640625 C 90.160156 95.625 90.179688 95.574219 90.191406 95.554688 C 90.308594 95.300781 90.390625 95.003906 90.417969 94.707031 C 90.421875 94.714844 90.425781 94.722656 90.433594 94.730469 C 90.558594 94.878906 90.722656 94.976562 90.882812 95.082031 C 91.015625 95.164062 91.144531 95.246094 91.230469 95.378906 C 91.257812 95.417969 91.257812 95.476562 91.25 95.546875 C 91.242188 95.699219 91.1875 95.898438 91.117188 96.109375 C 90.992188 96.503906 90.816406 96.941406 90.746094 97.257812 C 90.707031 97.421875 90.703125 97.554688 90.726562 97.648438 C 90.789062 97.867188 90.9375 97.953125 91.125 97.960938 C 91.328125 97.96875 91.597656 97.859375 91.816406 97.757812 L 91.820312 97.757812 C 91.792969 97.792969 91.761719 97.832031 91.730469 97.871094 C 91.371094 98.304688 90.765625 98.90625 90.574219 99.019531 C 90.351562 99.15625 90.074219 99.398438 89.792969 99.570312 C 89.628906 99.667969 89.464844 99.742188 89.308594 99.738281 C 88.871094 99.726562 88.421875 99.480469 87.992188 99.203125 C 87.527344 98.90625 87.085938 98.570312 86.707031 98.386719 C 86.511719 98.292969 86.253906 98.25 86.007812 98.1875 C 85.804688 98.132812 85.609375 98.074219 85.496094 97.933594 C 85.351562 97.757812 85.355469 97.53125 85.332031 97.316406 C 85.296875 97.027344 85.230469 96.753906 84.945312 96.554688 C 84.160156 96.007812 83.265625 95.625 82.460938 95.105469 C 81.433594 94.441406 80.441406 93.753906 79.445312 93.042969 C 79.375 92.992188 79.277344 93.011719 79.230469 93.078125 C 79.179688 93.148438 79.195312 93.246094 79.265625 93.292969 C 80.265625 94.007812 81.261719 94.699219 82.292969 95.367188 C 83.09375 95.882812 83.984375 96.261719 84.769531 96.808594 C 84.972656 96.949219 85 97.148438 85.023438 97.351562 C 85.054688 97.625 85.074219 97.902344 85.257812 98.128906 C 85.382812 98.28125 85.570312 98.378906 85.785156 98.445312 C 86.050781 98.527344 86.355469 98.5625 86.574219 98.664062 C 87.023438 98.878906 87.554688 99.316406 88.105469 99.636719 C 88.503906 99.863281 88.90625 100.035156 89.300781 100.046875 C 89.511719 100.050781 89.734375 99.964844 89.949219 99.832031 C 90.234375 99.664062 90.507812 99.417969 90.734375 99.285156 C 90.933594 99.164062 91.582031 98.53125 91.96875 98.066406 C 92.085938 97.921875 92.179688 97.792969 92.230469 97.703125 C 92.261719 97.644531 92.277344 97.597656 92.285156 97.558594 C 92.292969 97.492188 92.273438 97.445312 92.25 97.410156 C 92.21875 97.371094 92.175781 97.34375 92.109375 97.335938 C 92.058594 97.332031 91.960938 97.359375 91.847656 97.40625 C 91.6875 97.476562 91.46875 97.589844 91.277344 97.632812 C 91.164062 97.660156 91.058594 97.675781 91.023438 97.5625 C 91 97.484375 91.035156 97.351562 91.078125 97.191406 C 91.160156 96.902344 91.304688 96.535156 91.410156 96.203125 C 91.488281 95.964844 91.546875 95.742188 91.558594 95.566406 C 91.570312 95.414062 91.542969 95.292969 91.488281 95.210938 C 91.375 95.039062 91.214844 94.925781 91.046875 94.820312 C 90.914062 94.734375 90.773438 94.65625 90.667969 94.53125 C 90.640625 94.496094 90.632812 94.4375 90.617188 94.386719 C 90.597656 94.320312 90.578125 94.261719 90.550781 94.214844 C 90.507812 94.140625 90.445312 94.097656 90.367188 94.085938 C 90.28125 93.78125 90.101562 93.523438 89.796875 93.359375 C 89.484375 93.191406 89.121094 93.109375 88.839844 92.886719 C 88.695312 92.773438 88.585938 92.628906 88.46875 92.496094 C 88.335938 92.339844 88.199219 92.1875 88.015625 92.074219 C 87.808594 91.941406 87.574219 91.878906 87.34375 91.804688 C 87.148438 91.742188 86.953125 91.671875 86.789062 91.527344 C 85.949219 90.777344 85.199219 89.652344 84.222656 89.105469 C 84.148438 89.0625 84.054688 89.089844 84.011719 89.164062 C 83.96875 89.238281 83.996094 89.332031 84.070312 89.375 C 85.03125 89.910156 85.757812 91.019531 86.582031 91.757812 C 86.78125 91.933594 87.011719 92.023438 87.25 92.097656 C 87.457031 92.164062 87.667969 92.21875 87.851562 92.335938 C 88.007812 92.433594 88.121094 92.5625 88.234375 92.695312 C 88.363281 92.84375 88.488281 93 88.648438 93.128906 C 88.941406 93.363281 89.324219 93.457031 89.652344 93.632812 C 89.933594 93.78125 90.0625 94.042969 90.101562 94.332031 Z M 90.101562 94.332031 " fill-opacity="1" fill-rule="evenodd"/><path fill="#4f3431" d="M 92.265625 96.640625 C 92.464844 96.269531 92.636719 96.050781 92.75 95.878906 C 92.84375 95.742188 92.898438 95.625 92.917969 95.496094 C 92.929688 95.414062 92.871094 95.335938 92.785156 95.324219 C 92.703125 95.3125 92.625 95.371094 92.613281 95.453125 C 92.601562 95.539062 92.554688 95.617188 92.492188 95.710938 C 92.375 95.886719 92.199219 96.113281 91.996094 96.496094 C 91.957031 96.570312 91.984375 96.664062 92.058594 96.703125 C 92.132812 96.742188 92.226562 96.714844 92.265625 96.640625 Z M 92.265625 96.640625 " fill-opacity="1" fill-rule="evenodd"/><path fill="#4f3431" d="M 64.046875 78.039062 C 63.089844 78.214844 62.109375 78.597656 61.742188 78.996094 C 61.679688 79.066406 61.683594 79.136719 61.714844 79.195312 C 61.726562 79.222656 61.75 79.25 61.785156 79.269531 C 61.8125 79.289062 61.867188 79.304688 61.898438 79.324219 C 61.871094 79.324219 61.847656 79.328125 61.828125 79.328125 C 61.460938 79.359375 61.023438 79.480469 60.71875 79.695312 C 59.3125 80.683594 58.542969 82.453125 58.9375 84.152344 C 59.070312 84.730469 59.449219 85.230469 59.648438 85.789062 C 59.699219 85.929688 59.734375 86.074219 59.78125 86.21875 C 59.796875 86.265625 59.8125 86.378906 59.828125 86.433594 C 59.839844 86.472656 59.855469 86.5 59.863281 86.511719 C 59.90625 86.570312 59.957031 86.578125 59.996094 86.578125 C 60.027344 86.574219 60.125 86.566406 60.148438 86.433594 C 60.195312 86.195312 60.171875 85.90625 60.121094 85.605469 C 60.050781 85.222656 59.933594 84.820312 59.859375 84.496094 C 60.191406 84.957031 60.585938 85.269531 61.035156 85.433594 C 61.640625 85.65625 62.339844 85.613281 63.105469 85.296875 C 63.1875 85.265625 63.433594 85.179688 63.585938 85.085938 C 63.6875 85.019531 63.753906 84.941406 63.769531 84.875 C 63.773438 84.851562 63.777344 84.820312 63.765625 84.78125 C 63.757812 84.738281 63.71875 84.664062 63.707031 84.644531 C 63.414062 84.097656 63.097656 83.832031 62.828125 83.597656 C 62.464844 83.285156 62.191406 83.042969 62.191406 82.117188 C 62.183594 80.714844 63.164062 79.792969 64.421875 79.320312 C 64.800781 79.175781 65.214844 79.148438 65.589844 78.988281 C 65.871094 78.863281 66.109375 78.691406 66.359375 78.542969 C 66.585938 78.410156 66.816406 78.292969 67.109375 78.265625 C 67.679688 78.210938 68.234375 78.390625 68.800781 78.414062 C 69.3125 78.433594 70.308594 78.320312 70.929688 78.3125 C 71.078125 78.3125 71.203125 78.316406 71.292969 78.332031 C 71.300781 78.335938 71.308594 78.335938 71.320312 78.339844 C 71.308594 78.375 71.285156 78.433594 71.253906 78.476562 C 71.046875 78.789062 70.523438 79.222656 70.011719 79.242188 C 69.914062 79.246094 69.8125 79.226562 69.714844 79.210938 C 69.59375 79.191406 69.46875 79.179688 69.347656 79.191406 C 69.089844 79.226562 68.828125 79.332031 68.5625 79.414062 C 68.335938 79.484375 68.105469 79.539062 67.871094 79.476562 C 67.789062 79.457031 67.707031 79.503906 67.683594 79.585938 C 67.664062 79.667969 67.710938 79.753906 67.792969 79.773438 C 68.085938 79.851562 68.371094 79.796875 68.65625 79.707031 C 68.902344 79.632812 69.144531 79.527344 69.386719 79.5 C 69.480469 79.488281 69.574219 79.5 69.667969 79.515625 C 69.785156 79.535156 69.902344 79.554688 70.023438 79.550781 C 70.632812 79.527344 71.265625 79.019531 71.511719 78.644531 C 71.585938 78.53125 71.628906 78.425781 71.636719 78.34375 C 71.644531 78.246094 71.613281 78.171875 71.558594 78.121094 C 71.527344 78.089844 71.472656 78.058594 71.402344 78.042969 C 71.296875 78.015625 71.132812 78.003906 70.929688 78.003906 C 70.3125 78.011719 69.320312 78.125 68.8125 78.105469 C 68.234375 78.082031 67.664062 77.902344 67.082031 77.960938 C 66.738281 77.992188 66.464844 78.121094 66.203125 78.28125 C 66.183594 78.289062 66.164062 78.300781 66.148438 78.3125 C 66.15625 78.28125 66.179688 78.1875 66.066406 78.121094 C 65.730469 77.925781 65.113281 77.890625 64.4375 77.976562 C 64.367188 77.925781 64.296875 77.855469 64.226562 77.769531 C 64.203125 77.742188 64.085938 77.597656 64.019531 77.492188 C 64.90625 76.835938 65.789062 76.132812 66.773438 75.628906 C 66.851562 75.589844 66.878906 75.496094 66.839844 75.421875 C 66.800781 75.34375 66.707031 75.3125 66.632812 75.351562 C 65.601562 75.882812 64.675781 76.628906 63.746094 77.308594 C 63.703125 77.339844 63.648438 77.425781 63.699219 77.550781 C 63.753906 77.667969 63.953125 77.925781 63.984375 77.964844 C 64.007812 77.988281 64.027344 78.015625 64.046875 78.039062 Z M 62.363281 79.644531 C 62.144531 79.628906 61.945312 79.628906 61.851562 79.636719 C 61.535156 79.664062 61.160156 79.765625 60.894531 79.949219 C 59.589844 80.863281 58.871094 82.503906 59.238281 84.082031 C 59.324219 84.46875 59.527344 84.816406 59.710938 85.167969 C 59.644531 84.914062 59.578125 84.664062 59.539062 84.457031 C 59.496094 84.253906 59.464844 84.050781 59.410156 83.851562 C 59.390625 83.785156 59.335938 83.648438 59.320312 83.574219 C 59.308594 83.519531 59.3125 83.480469 59.324219 83.453125 C 59.339844 83.398438 59.378906 83.367188 59.421875 83.347656 C 59.457031 83.335938 59.507812 83.328125 59.574219 83.363281 C 59.617188 83.390625 59.667969 83.441406 59.703125 83.519531 C 59.75 83.613281 59.789062 83.757812 59.816406 83.816406 C 60.152344 84.5 60.601562 84.945312 61.140625 85.144531 C 61.679688 85.34375 62.304688 85.292969 62.988281 85.011719 C 63.054688 84.984375 63.230469 84.925781 63.367188 84.855469 C 63.390625 84.839844 63.421875 84.820312 63.445312 84.804688 C 63.441406 84.796875 63.4375 84.792969 63.4375 84.789062 C 63.09375 84.15625 62.71875 83.929688 62.433594 83.660156 C 62.117188 83.359375 61.882812 83.015625 61.882812 82.121094 C 61.878906 81.171875 62.277344 80.417969 62.90625 79.855469 C 62.839844 79.847656 62.777344 79.832031 62.707031 79.808594 C 62.589844 79.769531 62.476562 79.710938 62.363281 79.644531 Z M 64.359375 78.296875 C 63.492188 78.421875 62.546875 78.730469 62.097656 79.089844 C 62.214844 79.171875 62.335938 79.261719 62.460938 79.34375 C 62.621094 79.355469 62.789062 79.378906 62.929688 79.40625 C 63.09375 79.441406 63.222656 79.492188 63.304688 79.546875 C 63.609375 79.339844 63.949219 79.167969 64.3125 79.03125 C 64.6875 78.886719 65.097656 78.863281 65.464844 78.703125 C 65.648438 78.625 65.8125 78.523438 65.972656 78.421875 C 65.964844 78.421875 65.957031 78.421875 65.949219 78.421875 C 65.898438 78.414062 65.796875 78.390625 65.75 78.382812 C 65.617188 78.367188 65.488281 78.363281 65.355469 78.386719 C 65 78.441406 64.730469 78.457031 64.484375 78.355469 C 64.441406 78.339844 64.402344 78.320312 64.359375 78.296875 Z M 64.359375 78.296875 " fill-opacity="1" fill-rule="evenodd"/><path fill="#4f3431" d="M 74.652344 79.507812 C 74.644531 79.503906 74.609375 79.492188 74.585938 79.480469 C 74.53125 79.453125 74.472656 79.414062 74.410156 79.371094 C 74.253906 79.269531 74.082031 79.167969 73.957031 79.15625 C 73.5625 79.121094 73.132812 79.203125 72.703125 79.347656 C 72.09375 79.550781 71.484375 79.875 70.988281 80.09375 C 70.910156 80.125 70.871094 80.21875 70.90625 80.296875 C 70.941406 80.375 71.03125 80.410156 71.109375 80.375 C 71.601562 80.160156 72.199219 79.839844 72.804688 79.640625 C 73.1875 79.511719 73.570312 79.429688 73.929688 79.464844 C 73.964844 79.46875 74 79.488281 74.042969 79.507812 C 74.136719 79.558594 74.230469 79.625 74.320312 79.683594 C 74.394531 79.726562 74.460938 79.765625 74.519531 79.789062 C 74.582031 79.8125 74.636719 79.820312 74.683594 79.8125 C 75.738281 79.679688 76.214844 79.425781 77.015625 80.199219 C 77.074219 80.257812 77.171875 80.253906 77.230469 80.195312 C 77.289062 80.132812 77.289062 80.035156 77.226562 79.976562 C 76.34375 79.121094 75.816406 79.359375 74.652344 79.507812 Z M 74.652344 79.507812 " fill-opacity="1" fill-rule="evenodd"/><path fill="#4f3431" d="M 64.035156 84.84375 C 63.636719 85.21875 62.5 85.941406 62.148438 86.359375 C 62.039062 86.492188 61.898438 86.800781 61.765625 87.191406 C 61.46875 88.0625 61.164062 89.335938 61.125 89.746094 C 61.121094 89.832031 61.183594 89.90625 61.265625 89.914062 C 61.351562 89.921875 61.425781 89.859375 61.433594 89.773438 C 61.46875 89.375 61.765625 88.136719 62.058594 87.292969 C 62.175781 86.949219 62.289062 86.671875 62.382812 86.558594 C 62.730469 86.144531 63.855469 85.4375 64.246094 85.066406 C 64.308594 85.007812 64.3125 84.910156 64.253906 84.847656 C 64.195312 84.789062 64.097656 84.785156 64.035156 84.84375 Z M 64.035156 84.84375 " fill-opacity="1" fill-rule="evenodd"/><path fill="#4f3431" d="M 61.175781 85.480469 C 61.332031 85.628906 61.445312 85.855469 61.566406 86.078125 C 61.707031 86.332031 61.851562 86.582031 62.050781 86.734375 C 62.117188 86.789062 62.214844 86.777344 62.265625 86.707031 C 62.316406 86.640625 62.308594 86.542969 62.238281 86.492188 C 62.074219 86.363281 61.957031 86.144531 61.839844 85.929688 C 61.703125 85.679688 61.5625 85.425781 61.386719 85.257812 C 61.324219 85.199219 61.226562 85.203125 61.167969 85.261719 C 61.109375 85.324219 61.113281 85.421875 61.175781 85.480469 Z M 61.175781 85.480469 " fill-opacity="1" fill-rule="evenodd"/><path fill="#4f3431" d="M 75.839844 95.050781 C 75.15625 97.003906 74.160156 97.765625 72.855469 98.3125 C 71.960938 98.691406 70.925781 98.96875 69.753906 99.445312 C 69.675781 99.480469 69.636719 99.570312 69.667969 99.648438 C 69.699219 99.726562 69.792969 99.765625 69.871094 99.730469 C 71.042969 99.253906 72.078125 98.972656 72.972656 98.597656 C 74.355469 98.019531 75.410156 97.214844 76.128906 95.152344 C 76.160156 95.074219 76.117188 94.984375 76.035156 94.957031 C 75.953125 94.929688 75.867188 94.972656 75.839844 95.050781 Z M 75.839844 95.050781 " fill-opacity="1" fill-rule="evenodd"/><path fill="#4f3431" d="M 73.417969 98.457031 C 72.714844 99.828125 71.152344 102.054688 69.921875 102.988281 C 69.855469 103.039062 69.84375 103.136719 69.894531 103.203125 C 69.945312 103.273438 70.042969 103.285156 70.109375 103.234375 C 71.367188 102.28125 72.972656 100 73.691406 98.597656 C 73.730469 98.523438 73.699219 98.429688 73.625 98.390625 C 73.546875 98.351562 73.457031 98.382812 73.417969 98.457031 Z M 73.417969 98.457031 " fill-opacity="1" fill-rule="evenodd"/><path fill="#4f3431" d="M 71.246094 102.023438 C 71.3125 102.765625 71.5625 103.503906 71.667969 104.246094 C 71.679688 104.328125 71.757812 104.386719 71.839844 104.375 C 71.925781 104.363281 71.984375 104.285156 71.972656 104.203125 C 71.871094 103.464844 71.621094 102.730469 71.554688 101.996094 C 71.546875 101.910156 71.46875 101.847656 71.386719 101.855469 C 71.300781 101.863281 71.238281 101.9375 71.246094 102.023438 Z M 71.246094 102.023438 " fill-opacity="1" fill-rule="evenodd"/><g clip-path="url(#542f45416c)"><path fill="#4f3431" d="M 59.984375 97.152344 C 59.46875 98.628906 58.742188 100.167969 57.789062 101.414062 C 57.011719 102.433594 55.996094 103.398438 55.390625 104.542969 C 55.351562 104.617188 55.378906 104.710938 55.453125 104.75 C 55.527344 104.789062 55.621094 104.761719 55.664062 104.6875 C 56.257812 103.558594 57.265625 102.605469 58.035156 101.601562 C 59.003906 100.332031 59.75 98.757812 60.273438 97.253906 C 60.304688 97.171875 60.261719 97.085938 60.179688 97.054688 C 60.097656 97.027344 60.011719 97.070312 59.984375 97.152344 Z M 59.984375 97.152344 " fill-opacity="1" fill-rule="evenodd"/></g><path fill="#4f3431" d="M 76.167969 94.371094 C 77.039062 97.472656 77.378906 100.644531 77.566406 103.839844 C 77.570312 103.925781 77.644531 103.992188 77.730469 103.984375 C 77.8125 103.980469 77.878906 103.910156 77.875 103.824219 C 77.6875 100.605469 77.339844 97.410156 76.464844 94.289062 C 76.441406 94.207031 76.355469 94.15625 76.273438 94.179688 C 76.191406 94.203125 76.144531 94.289062 76.167969 94.371094 Z M 76.167969 94.371094 " fill-opacity="1" fill-rule="evenodd"/><path fill="#4f3431" d="M 76.660156 94.414062 C 76.890625 95.648438 77.308594 96.839844 77.546875 98.070312 C 77.929688 100.050781 78.074219 102.074219 78.308594 104.074219 C 78.320312 104.160156 78.394531 104.21875 78.480469 104.210938 C 78.5625 104.199219 78.625 104.121094 78.617188 104.039062 C 78.382812 102.027344 78.234375 100 77.851562 98.011719 C 77.613281 96.78125 77.191406 95.589844 76.964844 94.355469 C 76.949219 94.273438 76.871094 94.21875 76.785156 94.234375 C 76.703125 94.25 76.644531 94.328125 76.660156 94.414062 Z M 76.660156 94.414062 " fill-opacity="1" fill-rule="evenodd"/><path fill="#4f3431" d="M 73.96875 100.253906 C 74.335938 100.996094 74.648438 101.230469 74.984375 101.488281 C 75.191406 101.648438 75.410156 101.8125 75.65625 102.136719 C 75.9375 102.496094 76.03125 102.882812 76.21875 103.285156 C 76.253906 103.363281 76.347656 103.394531 76.421875 103.359375 C 76.5 103.324219 76.535156 103.230469 76.496094 103.15625 C 76.300781 102.730469 76.195312 102.328125 75.902344 101.945312 C 75.632812 101.597656 75.398438 101.414062 75.171875 101.242188 C 74.867188 101.007812 74.582031 100.792969 74.246094 100.117188 C 74.207031 100.039062 74.113281 100.007812 74.039062 100.046875 C 73.960938 100.085938 73.929688 100.175781 73.96875 100.253906 Z M 73.96875 100.253906 " fill-opacity="1" fill-rule="evenodd"/><path fill="#4f3431" d="M 90.410156 102.855469 C 90.261719 102.78125 90.117188 102.714844 89.972656 102.675781 C 89.753906 102.613281 89.539062 102.609375 89.339844 102.699219 C 89.132812 102.789062 88.9375 102.980469 88.757812 103.335938 C 88.730469 103.398438 88.738281 103.449219 88.765625 103.496094 C 88.78125 103.527344 88.832031 103.582031 88.9375 103.585938 C 89.097656 103.59375 89.613281 103.496094 90.148438 103.296875 C 90.238281 103.261719 90.324219 103.230469 90.402344 103.195312 C 90.511719 103.253906 90.621094 103.316406 90.730469 103.371094 C 91.066406 103.546875 91.421875 103.65625 91.710938 103.914062 C 91.773438 103.96875 91.871094 103.960938 91.929688 103.898438 C 91.984375 103.835938 91.980469 103.738281 91.914062 103.679688 C 91.605469 103.40625 91.234375 103.285156 90.875 103.097656 C 90.828125 103.074219 90.785156 103.050781 90.742188 103.027344 C 91.050781 102.851562 91.21875 102.667969 91.289062 102.476562 C 91.359375 102.289062 91.339844 102.085938 91.25 101.863281 C 91.140625 101.582031 90.90625 101.257812 90.640625 100.871094 C 90.59375 100.800781 90.496094 100.785156 90.425781 100.832031 C 90.355469 100.878906 90.339844 100.976562 90.386719 101.046875 C 90.597656 101.351562 90.789062 101.613281 90.90625 101.847656 C 91.003906 102.042969 91.058594 102.214844 91 102.371094 C 90.960938 102.476562 90.875 102.574219 90.734375 102.671875 C 90.648438 102.734375 90.539062 102.792969 90.410156 102.855469 Z M 90.019531 103.015625 L 90.015625 103.015625 C 89.824219 102.941406 89.636719 102.902344 89.464844 102.980469 C 89.355469 103.027344 89.257812 103.117188 89.160156 103.257812 C 89.371094 103.21875 89.6875 103.136719 90.019531 103.015625 Z M 90.019531 103.015625 " fill-opacity="1" fill-rule="evenodd"/><path fill="#4f3431" d="M 61.839844 86.90625 C 61.484375 87.242188 60.773438 87.679688 60.410156 88 C 60.058594 88.316406 59.765625 88.703125 59.425781 89.03125 C 59.296875 89.152344 59.128906 89.214844 58.996094 89.328125 C 58.652344 89.628906 58.375 89.972656 58.085938 90.324219 C 57.894531 90.558594 57.667969 90.75 57.480469 90.964844 C 57.273438 91.203125 57.117188 91.472656 57.089844 91.851562 C 57.078125 92.0625 57.15625 92.339844 57.28125 92.621094 C 57.449219 93.011719 57.691406 93.421875 57.820312 93.683594 C 57.964844 93.980469 58.042969 94.226562 58.144531 94.4375 C 58.316406 94.785156 58.535156 95.042969 59.128906 95.230469 C 59.210938 95.257812 59.296875 95.214844 59.324219 95.132812 C 59.347656 95.050781 59.304688 94.964844 59.222656 94.9375 C 58.660156 94.757812 58.503906 94.507812 58.355469 94.148438 C 58.28125 93.972656 58.207031 93.773438 58.097656 93.550781 C 57.972656 93.289062 57.730469 92.882812 57.5625 92.5 C 57.460938 92.269531 57.386719 92.046875 57.398438 91.875 C 57.417969 91.570312 57.550781 91.355469 57.714844 91.164062 C 57.902344 90.949219 58.132812 90.757812 58.324219 90.519531 C 58.601562 90.183594 58.867188 89.851562 59.199219 89.5625 C 59.335938 89.445312 59.507812 89.378906 59.636719 89.253906 C 59.976562 88.929688 60.265625 88.542969 60.613281 88.234375 C 60.980469 87.90625 61.695312 87.464844 62.050781 87.128906 C 62.113281 87.070312 62.117188 86.972656 62.058594 86.914062 C 62 86.851562 61.902344 86.847656 61.839844 86.90625 Z M 61.839844 86.90625 " fill-opacity="1" fill-rule="evenodd"/><path fill="#4f3431" d="M 67.4375 79.1875 C 67.628906 79.9375 68.136719 80.1875 68.746094 80.253906 C 69.292969 80.3125 69.925781 80.210938 70.433594 80.238281 C 70.683594 80.25 70.9375 80.367188 71.179688 80.421875 C 71.617188 80.523438 72.125 80.585938 72.609375 80.699219 C 73.070312 80.804688 73.515625 80.957031 73.855469 81.242188 C 73.996094 81.363281 74.089844 81.46875 74.144531 81.558594 C 74.183594 81.621094 74.199219 81.671875 74.1875 81.71875 C 74.179688 81.761719 74.148438 81.792969 74.105469 81.824219 C 74.039062 81.867188 73.953125 81.902344 73.855469 81.929688 C 73.414062 82.058594 72.742188 82.039062 72.421875 81.964844 C 71.753906 81.8125 71.1875 81.480469 70.492188 81.503906 C 69.652344 81.535156 68.632812 81.640625 67.816406 81.402344 C 67.734375 81.378906 67.648438 81.425781 67.625 81.507812 C 67.601562 81.589844 67.648438 81.671875 67.730469 81.699219 C 68.574219 81.945312 69.632812 81.84375 70.503906 81.8125 C 71.171875 81.789062 71.710938 82.121094 72.355469 82.265625 C 72.707031 82.347656 73.453125 82.367188 73.941406 82.226562 C 74.238281 82.140625 74.445312 81.984375 74.488281 81.789062 C 74.507812 81.695312 74.5 81.59375 74.449219 81.480469 C 74.390625 81.347656 74.265625 81.1875 74.054688 81.007812 C 73.679688 80.691406 73.191406 80.515625 72.679688 80.398438 C 72.195312 80.285156 71.6875 80.222656 71.25 80.121094 C 70.988281 80.0625 70.71875 79.941406 70.449219 79.929688 C 69.945312 79.902344 69.320312 80.003906 68.777344 79.945312 C 68.296875 79.894531 67.886719 79.703125 67.734375 79.113281 C 67.714844 79.03125 67.628906 78.980469 67.546875 79 C 67.464844 79.023438 67.414062 79.105469 67.4375 79.1875 Z M 67.4375 79.1875 " fill-opacity="1" fill-rule="evenodd"/><path fill="#4f3431" d="M 68.519531 81.835938 C 69.140625 82.070312 69.808594 82.511719 70.4375 82.714844 C 70.890625 82.859375 71.476562 82.984375 72.042969 83.148438 C 72.585938 83.308594 73.113281 83.503906 73.484375 83.804688 C 73.546875 83.859375 73.644531 83.851562 73.699219 83.785156 C 73.753906 83.71875 73.742188 83.621094 73.679688 83.566406 C 72.898438 82.925781 71.453125 82.71875 70.53125 82.421875 C 69.910156 82.21875 69.246094 81.78125 68.628906 81.546875 C 68.550781 81.515625 68.460938 81.558594 68.429688 81.636719 C 68.398438 81.714844 68.441406 81.804688 68.519531 81.835938 Z M 68.519531 81.835938 " fill-opacity="1" fill-rule="evenodd"/><path fill="#4f3431" d="M 67.1875 83.6875 C 67.960938 83.6875 68.757812 83.828125 69.511719 83.980469 C 69.75 84.027344 69.992188 84.140625 70.234375 84.167969 C 70.9375 84.25 71.800781 84.398438 72.40625 84.820312 C 72.476562 84.871094 72.574219 84.851562 72.621094 84.78125 C 72.671875 84.710938 72.652344 84.617188 72.585938 84.566406 C 71.933594 84.117188 71.019531 83.949219 70.269531 83.863281 C 70.035156 83.835938 69.800781 83.726562 69.570312 83.679688 C 68.796875 83.523438 67.980469 83.382812 67.1875 83.382812 C 67.105469 83.382812 67.035156 83.449219 67.035156 83.535156 C 67.035156 83.621094 67.105469 83.6875 67.1875 83.6875 Z M 67.1875 83.6875 " fill-opacity="1" fill-rule="evenodd"/><path fill="#4f3431" d="M 67.953125 83.734375 C 68.519531 83.785156 69.644531 84.328125 70.144531 84.59375 C 70.664062 84.871094 71.222656 85.378906 71.785156 85.566406 C 71.867188 85.589844 71.953125 85.546875 71.980469 85.464844 C 72.007812 85.386719 71.964844 85.296875 71.882812 85.273438 C 71.332031 85.089844 70.796875 84.589844 70.289062 84.320312 C 69.765625 84.039062 68.574219 83.480469 67.980469 83.425781 C 67.898438 83.417969 67.820312 83.480469 67.8125 83.566406 C 67.804688 83.648438 67.867188 83.726562 67.953125 83.734375 Z M 67.953125 83.734375 " fill-opacity="1" fill-rule="evenodd"/><path fill="#4f3431" d="M 62.835938 84.035156 C 62.957031 84.109375 63.097656 84.167969 63.238281 84.226562 C 63.355469 84.277344 63.46875 84.332031 63.558594 84.40625 C 63.742188 84.566406 63.875 84.757812 64.015625 84.933594 C 64.179688 85.136719 64.355469 85.324219 64.605469 85.457031 C 65.363281 85.859375 66.183594 86.027344 66.980469 86.308594 C 67.644531 86.542969 68.292969 86.945312 68.875 87.328125 C 68.949219 87.375 69.042969 87.355469 69.089844 87.28125 C 69.136719 87.210938 69.117188 87.117188 69.046875 87.070312 C 68.441406 86.671875 67.769531 86.257812 67.085938 86.019531 C 66.300781 85.742188 65.496094 85.578125 64.75 85.1875 C 64.539062 85.074219 64.394531 84.910156 64.257812 84.742188 C 64.101562 84.550781 63.957031 84.347656 63.761719 84.175781 C 63.554688 83.996094 63.234375 83.921875 63 83.773438 C 62.929688 83.726562 62.832031 83.75 62.789062 83.820312 C 62.742188 83.894531 62.765625 83.988281 62.835938 84.035156 Z M 62.835938 84.035156 " fill-opacity="1" fill-rule="evenodd"/><path fill="#4f3431" d="M 67.578125 85.242188 C 68.453125 85.539062 68.914062 86.050781 69.667969 86.515625 C 69.742188 86.558594 69.835938 86.539062 69.878906 86.464844 C 69.925781 86.394531 69.902344 86.296875 69.832031 86.253906 C 69.054688 85.773438 68.578125 85.253906 67.679688 84.953125 C 67.597656 84.925781 67.511719 84.96875 67.484375 85.046875 C 67.457031 85.128906 67.5 85.214844 67.578125 85.242188 Z M 67.578125 85.242188 " fill-opacity="1" fill-rule="evenodd"/><path fill="#4f3431" d="M 67.054688 85.027344 C 67.308594 85.175781 67.582031 85.246094 67.859375 85.296875 C 68.113281 85.34375 68.375 85.375 68.625 85.453125 C 69.15625 85.617188 69.726562 85.921875 70.234375 86.160156 C 70.3125 86.195312 70.402344 86.160156 70.4375 86.082031 C 70.472656 86.007812 70.441406 85.914062 70.363281 85.878906 C 69.84375 85.636719 69.257812 85.328125 68.714844 85.160156 C 68.453125 85.078125 68.183594 85.042969 67.914062 84.996094 C 67.671875 84.949219 67.433594 84.890625 67.210938 84.761719 C 67.136719 84.71875 67.042969 84.742188 67 84.8125 C 66.957031 84.886719 66.980469 84.980469 67.054688 85.027344 Z M 67.054688 85.027344 " fill-opacity="1" fill-rule="evenodd"/><g clip-path="url(#2b05d4b8d6)"><path fill="#4f3431" d="M 89.914062 100.421875 C 90.019531 100.316406 90.15625 100.214844 90.195312 100.195312 C 90.273438 100.164062 90.308594 100.070312 90.273438 99.992188 C 90.238281 99.917969 90.148438 99.878906 90.070312 99.914062 C 90 99.945312 89.710938 100.15625 89.578125 100.335938 C 89.480469 100.46875 89.476562 100.601562 89.539062 100.683594 C 89.550781 100.703125 89.574219 100.726562 89.609375 100.742188 C 89.640625 100.753906 89.699219 100.765625 89.777344 100.757812 C 90.015625 100.746094 90.5625 100.628906 90.648438 100.613281 C 91.15625 100.507812 91.898438 100.449219 92.515625 100.34375 C 92.957031 100.265625 93.335938 100.164062 93.546875 100.019531 C 93.964844 99.726562 94.03125 99.277344 94.140625 98.785156 C 94.289062 98.128906 94.523438 97.472656 94.582031 96.804688 C 94.644531 96.085938 94.183594 94.976562 93.871094 94.332031 C 93.796875 94.179688 93.730469 93.96875 93.648438 93.785156 C 93.582031 93.640625 93.503906 93.511719 93.402344 93.417969 C 93.15625 93.1875 92.925781 93.078125 92.683594 92.996094 C 92.464844 92.921875 92.238281 92.871094 91.984375 92.757812 C 91.90625 92.722656 91.816406 92.757812 91.78125 92.835938 C 91.746094 92.914062 91.78125 93.003906 91.859375 93.039062 C 92.074219 93.132812 92.265625 93.1875 92.453125 93.246094 C 92.703125 93.324219 92.941406 93.40625 93.195312 93.644531 C 93.285156 93.730469 93.347656 93.863281 93.40625 94.003906 C 93.472656 94.164062 93.53125 94.335938 93.59375 94.464844 C 93.886719 95.070312 94.332031 96.105469 94.273438 96.777344 C 94.21875 97.433594 93.984375 98.078125 93.839844 98.714844 C 93.800781 98.894531 93.769531 99.066406 93.722656 99.226562 C 93.660156 99.4375 93.570312 99.625 93.371094 99.765625 C 93.1875 99.894531 92.847656 99.972656 92.464844 100.039062 C 91.84375 100.144531 91.097656 100.207031 90.585938 100.3125 C 90.527344 100.324219 90.152344 100.382812 89.914062 100.421875 Z M 89.914062 100.421875 " fill-opacity="1" fill-rule="evenodd"/></g><path fill="#4f3431" d="M 90.273438 99.914062 C 90.273438 99.902344 90.273438 99.886719 90.277344 99.871094 C 90.3125 99.640625 90.472656 99.472656 90.6875 99.335938 C 90.929688 99.175781 91.238281 99.050781 91.546875 98.925781 C 91.726562 98.855469 92.019531 98.703125 92.097656 98.660156 C 92.171875 98.617188 92.195312 98.523438 92.152344 98.449219 C 92.113281 98.375 92.015625 98.351562 91.945312 98.394531 C 91.871094 98.433594 91.597656 98.574219 91.433594 98.640625 C 91.035156 98.800781 90.636719 98.964844 90.363281 99.191406 C 90.15625 99.359375 90.011719 99.5625 89.972656 99.824219 C 89.949219 99.953125 89.976562 100.039062 90.011719 100.097656 C 90.0625 100.167969 90.136719 100.210938 90.230469 100.222656 C 90.386719 100.238281 90.632812 100.144531 90.765625 100.097656 C 91.390625 99.886719 92.253906 99.773438 92.792969 99.398438 C 92.886719 99.332031 92.988281 99.246094 93.042969 99.136719 C 93.164062 98.882812 93.210938 98.585938 93.308594 98.324219 C 93.53125 97.730469 93.761719 97.144531 93.984375 96.554688 C 94.015625 96.476562 93.976562 96.386719 93.894531 96.355469 C 93.816406 96.324219 93.726562 96.367188 93.699219 96.445312 C 93.472656 97.035156 93.242188 97.621094 93.023438 98.214844 C 92.925781 98.46875 92.882812 98.757812 92.765625 99 C 92.734375 99.0625 92.667969 99.105469 92.613281 99.144531 C 92.101562 99.507812 91.265625 99.605469 90.667969 99.804688 C 90.609375 99.824219 90.527344 99.859375 90.445312 99.882812 C 90.410156 99.894531 90.375 99.902344 90.34375 99.910156 C 90.320312 99.914062 90.292969 99.914062 90.273438 99.914062 Z M 90.273438 99.914062 " fill-opacity="1" fill-rule="evenodd"/><path fill="#4f3431" d="M 92.664062 94.972656 C 92.574219 95.460938 92.648438 96.015625 92.488281 96.480469 C 92.382812 96.792969 92.136719 97.277344 91.96875 97.726562 C 91.847656 98.050781 91.769531 98.363281 91.792969 98.585938 C 91.800781 98.671875 91.878906 98.730469 91.964844 98.722656 C 92.046875 98.714844 92.109375 98.636719 92.101562 98.554688 C 92.078125 98.363281 92.15625 98.105469 92.257812 97.832031 C 92.425781 97.382812 92.671875 96.894531 92.78125 96.582031 C 92.945312 96.101562 92.875 95.53125 92.96875 95.03125 C 92.984375 94.945312 92.929688 94.867188 92.84375 94.851562 C 92.761719 94.835938 92.679688 94.890625 92.664062 94.972656 Z M 92.664062 94.972656 " fill-opacity="1" fill-rule="evenodd"/><path fill="#4f3431" d="M 92.875 100.519531 C 92.488281 100.621094 92.082031 100.636719 91.695312 100.621094 C 91.433594 100.609375 90.992188 100.652344 90.585938 100.648438 C 90.34375 100.648438 90.117188 100.628906 89.960938 100.554688 C 89.882812 100.519531 89.792969 100.554688 89.757812 100.628906 C 89.71875 100.707031 89.753906 100.796875 89.832031 100.835938 C 90.015625 100.921875 90.292969 100.953125 90.585938 100.957031 C 90.984375 100.960938 91.421875 100.914062 91.679688 100.925781 C 92.101562 100.945312 92.546875 100.925781 92.964844 100.816406 C 93.027344 100.796875 93.117188 100.726562 93.203125 100.613281 C 93.355469 100.414062 93.519531 100.089844 93.542969 99.988281 C 93.566406 99.90625 93.515625 99.824219 93.433594 99.800781 C 93.351562 99.78125 93.265625 99.832031 93.246094 99.914062 C 93.222656 99.996094 93.085938 100.261719 92.960938 100.425781 C 92.929688 100.464844 92.882812 100.511719 92.875 100.519531 Z M 92.875 100.519531 " fill-opacity="1" fill-rule="evenodd"/><path fill="#4f3431" d="M 80.226562 97.339844 C 80.558594 97.976562 81.089844 98.378906 81.640625 98.761719 C 82.160156 99.121094 82.703125 99.460938 83.097656 99.984375 C 83.402344 100.386719 83.773438 100.816406 83.898438 101.316406 C 84.003906 101.730469 83.96875 102.160156 83.988281 102.582031 C 84.019531 103.191406 84.132812 103.617188 84.339844 103.941406 C 84.652344 104.421875 85.171875 104.679688 85.988281 104.96875 C 86.070312 104.996094 86.15625 104.957031 86.1875 104.875 C 86.214844 104.796875 86.171875 104.707031 86.09375 104.679688 C 85.359375 104.417969 84.878906 104.203125 84.601562 103.773438 C 84.417969 103.488281 84.324219 103.109375 84.296875 102.566406 C 84.273438 102.125 84.308594 101.675781 84.199219 101.242188 C 84.0625 100.699219 83.671875 100.234375 83.34375 99.796875 C 82.929688 99.246094 82.363281 98.886719 81.816406 98.507812 C 81.304688 98.15625 80.808594 97.785156 80.5 97.199219 C 80.460938 97.121094 80.367188 97.09375 80.292969 97.132812 C 80.214844 97.171875 80.1875 97.265625 80.226562 97.339844 Z M 80.226562 97.339844 " fill-opacity="1" fill-rule="evenodd"/><path fill="#4f3431" d="M 89.039062 91.242188 C 89.054688 91.621094 89.046875 91.988281 89.070312 92.265625 C 89.074219 92.351562 89.148438 92.414062 89.234375 92.410156 C 89.316406 92.402344 89.382812 92.328125 89.375 92.246094 C 89.363281 92.085938 89.359375 91.902344 89.359375 91.703125 C 89.582031 92.179688 89.683594 92.710938 89.804688 93.21875 C 89.824219 93.304688 89.90625 93.355469 89.988281 93.335938 C 90.074219 93.316406 90.125 93.230469 90.105469 93.148438 C 89.972656 92.601562 89.863281 92.03125 89.613281 91.523438 C 89.546875 91.390625 89.449219 91.257812 89.34375 91.125 C 89.332031 90.894531 89.3125 90.65625 89.273438 90.429688 C 89.199219 89.980469 89.046875 89.574219 88.765625 89.3125 C 88.714844 89.265625 88.660156 89.25 88.609375 89.25 C 88.546875 89.25 88.476562 89.277344 88.421875 89.347656 C 88.316406 89.476562 88.242188 89.792969 88.242188 89.847656 C 88.230469 90.222656 88.441406 90.554688 88.703125 90.863281 C 88.8125 90.992188 88.929688 91.117188 89.039062 91.242188 Z M 88.621094 89.605469 C 88.578125 89.699219 88.550781 89.832031 88.550781 89.855469 C 88.539062 90.160156 88.730469 90.414062 88.941406 90.664062 C 88.960938 90.691406 88.984375 90.714844 89.003906 90.738281 C 88.996094 90.652344 88.984375 90.566406 88.96875 90.484375 C 88.914062 90.140625 88.8125 89.824219 88.621094 89.605469 Z M 88.621094 89.605469 " fill-opacity="1" fill-rule="evenodd"/><path fill="#4f3431" d="M 69.050781 64.199219 C 68.726562 64.566406 68.144531 64.988281 67.734375 65.46875 C 67.429688 65.816406 67.21875 66.195312 67.21875 66.597656 C 67.21875 67.066406 67.585938 67.625 67.847656 68.066406 C 67.925781 68.195312 67.992188 68.3125 68.027344 68.417969 C 68.039062 68.449219 68.050781 68.480469 68.054688 68.507812 C 68.054688 68.523438 68.058594 68.539062 68.050781 68.554688 C 68.019531 68.609375 67.957031 68.648438 67.882812 68.6875 C 67.722656 68.765625 67.507812 68.828125 67.265625 68.898438 C 66.605469 69.089844 65.765625 69.351562 65.289062 70.09375 C 65.140625 70.328125 65 70.613281 65.0625 70.902344 C 65.121094 71.171875 65.351562 71.4375 65.675781 71.691406 C 66.113281 72.035156 66.722656 72.371094 67.222656 72.710938 C 67.488281 72.894531 67.71875 73.074219 67.875 73.265625 C 68.003906 73.425781 68.074219 73.585938 68.035156 73.761719 C 67.757812 74.960938 67.71875 75.574219 67.859375 75.949219 C 67.957031 76.199219 68.125 76.355469 68.375 76.496094 C 68.695312 76.675781 69.15625 76.832031 69.742188 77.207031 C 69.816406 77.253906 69.910156 77.230469 69.957031 77.160156 C 70.003906 77.089844 69.980469 76.992188 69.910156 76.945312 C 69.410156 76.628906 69 76.464844 68.691406 76.3125 C 68.425781 76.183594 68.238281 76.070312 68.148438 75.839844 C 68.015625 75.496094 68.082031 74.933594 68.335938 73.832031 C 68.386719 73.617188 68.335938 73.410156 68.210938 73.207031 C 68.050781 72.949219 67.75 72.699219 67.398438 72.457031 C 66.902344 72.117188 66.296875 71.789062 65.863281 71.449219 C 65.609375 71.25 65.410156 71.050781 65.363281 70.835938 C 65.320312 70.628906 65.441406 70.429688 65.550781 70.257812 C 65.980469 69.585938 66.75 69.367188 67.351562 69.195312 C 67.617188 69.117188 67.851562 69.050781 68.019531 68.964844 C 68.160156 68.890625 68.261719 68.804688 68.320312 68.703125 C 68.359375 68.636719 68.371094 68.558594 68.359375 68.464844 C 68.34375 68.367188 68.296875 68.246094 68.230469 68.113281 C 68.089844 67.851562 67.863281 67.519531 67.699219 67.1875 C 67.601562 66.984375 67.527344 66.785156 67.527344 66.597656 C 67.527344 66.265625 67.714844 65.957031 67.964844 65.667969 C 68.378906 65.191406 68.960938 64.769531 69.28125 64.402344 C 69.339844 64.339844 69.332031 64.242188 69.269531 64.1875 C 69.207031 64.128906 69.109375 64.136719 69.050781 64.199219 Z M 69.050781 64.199219 " fill-opacity="1" fill-rule="evenodd"/></svg>